<?xml version="1.0" encoding="UTF-8" standalone="no"?>
<!-- Uploaded to: SVG Repo, www.svgrepo.com, Generator: SVG Repo Mixer Tools -->

<svg
   height="800px"
   width="800px"
   version="1.1"
   id="_x32_"
   viewBox="0 0 512 512"
   xml:space="preserve"
   sodipodi:docname="dictionary-symbolic.svg"
   inkscape:version="1.4.3 (0d15f75042, 2025-12-25)"
   xmlns:inkscape="http://www.inkscape.org/namespaces/inkscape"
   xmlns:sodipodi="http://sodipodi.sourceforge.net/DTD/sodipodi-0.dtd"
   xmlns="http://www.w3.org/2000/svg"
   xmlns:svg="http://www.w3.org/2000/svg"><defs
   id="defs1" /><sodipodi:namedview
   id="namedview1"
   pagecolor="#ffffff"
   bordercolor="#000000"
   borderopacity="0.25"
   inkscape:showpageshadow="2"
   inkscape:pageopacity="0.0"
   inkscape:pagecheckerboard="0"
   inkscape:deskcolor="#d1d1d1"
   inkscape:zoom="0.125"
   inkscape:cx="-816"
   inkscape:cy="1504"
   inkscape:window-width="1280"
   inkscape:window-height="1371"
   inkscape:window-x="20"
   inkscape:window-y="20"
   inkscape:window-maximized="0"
   inkscape:current-layer="_x32_" />
<style
   type="text/css"
   id="style1">
	.st0{fill:#000000;}
</style>
<g
   id="g1">
	<path
   class="st0"
   d="M511.414,238.174c-1.902-9.034-8.242-16.503-16.851-19.856l-30.199-11.736v31.046l5.718,2.223   c2.58,1.008,4.483,3.25,5.048,5.953c0.565,2.712-0.263,5.538-2.223,7.497L279.143,447.057c-3.834,3.824-9.56,5.03-14.62,3.071   L41.756,363.489c-12.386-4.692-12.395-21.542-10.842-43.358c1.356-18.894,7.423-43.648,28.466-42.481l192.202,74.752   c17.228,6.698,36.782,2.553,49.819-10.559L487.169,154.85c6.499-6.537,9.268-15.919,7.356-24.934   c-1.912-9.023-8.242-16.474-16.833-19.809l-191.024-74.29c-17.228-6.698-36.792-2.553-49.819,10.559L21.646,262.984   C4.625,276.991,0,303.111,0,326.311c0,23.199,1.545,51.044,27.844,61.866l-6.198-1.451l230.039,89.456   c17.18,6.678,36.679,2.58,49.716-10.456l202.591-202.591C510.52,256.607,513.317,247.216,511.414,238.174z"
   id="path1" />
</g>
</svg>
