<?xml version="1.0" encoding="UTF-8" standalone="no"?>
<svg
   viewBox="0 0 128 128"
   style="display:inline;enable-background:new"
   version="1.0"
   id="svg11300"
   height="128"
   width="128"
   sodipodi:docname="io.github.fastrizwaan.diction.svg"
   inkscape:version="1.4.3 (0d15f75042, 2025-12-25)"
   xml:space="preserve"
   xmlns:inkscape="http://www.inkscape.org/namespaces/inkscape"
   xmlns:sodipodi="http://sodipodi.sourceforge.net/DTD/sodipodi-0.dtd"
   xmlns:xlink="http://www.w3.org/1999/xlink"
   xmlns="http://www.w3.org/2000/svg"
   xmlns:svg="http://www.w3.org/2000/svg"
   xmlns:rdf="http://www.w3.org/1999/02/22-rdf-syntax-ns#"
   xmlns:cc="http://creativecommons.org/ns#"
   xmlns:dc="http://purl.org/dc/elements/1.1/"><sodipodi:namedview
     id="namedview1"
     pagecolor="#ffffff"
     bordercolor="#000000"
     borderopacity="0.25"
     inkscape:showpageshadow="2"
     inkscape:pageopacity="0.0"
     inkscape:pagecheckerboard="0"
     inkscape:deskcolor="#d1d1d1"
     inkscape:zoom="2.8284271"
     inkscape:cx="96.696852"
     inkscape:cy="122.68303"
     inkscape:window-width="1280"
     inkscape:window-height="1371"
     inkscape:window-x="20"
     inkscape:window-y="20"
     inkscape:window-maximized="0"
     inkscape:current-layer="g15" /><title
     id="title4162">Adwaita Icon Template</title><defs
     id="defs3"><linearGradient
       id="linearGradient20"
       inkscape:collect="always"><stop
         style="stop-color:#fbf8f4;stop-opacity:1"
         offset="0"
         id="stop18" /><stop
         style="stop-color:#fcfbf8;stop-opacity:1"
         offset="0.23588696"
         id="stop19" /><stop
         style="stop-color:#f3eee5;stop-opacity:1"
         offset="1"
         id="stop20" /></linearGradient><linearGradient
       id="linearGradient1458"><stop
         id="stop1452"
         offset="0"
         style="stop-color:#deddda;stop-opacity:1" /><stop
         style="stop-color:#ffffff;stop-opacity:1"
         offset="0.51104856"
         id="stop1454" /><stop
         id="stop1456"
         offset="1"
         style="stop-color:#c0bfbc;stop-opacity:1" /></linearGradient><linearGradient
       gradientTransform="translate(0,640)"
       gradientUnits="userSpaceOnUse"
       y2="120"
       x2="416"
       y1="120"
       x1="384"
       id="linearGradient1053-2"
       xlink:href="#linearGradient40" /><linearGradient
       id="b"
       gradientUnits="userSpaceOnUse"
       x1="20"
       x2="108"
       y1="54"
       y2="54"
       gradientTransform="translate(0,-1.9823008)"
       xlink:href="#linearGradient33"><stop
         offset="0"
         stop-color="#3584e4"
         id="stop4"
         style="stop-color:#cf0339;stop-opacity:1;" /><stop
         offset="0.0227273"
         stop-color="#62a0ea"
         id="stop5"
         style="stop-color:#cf0a3f;stop-opacity:1;" /><stop
         offset="0.0909091"
         stop-color="#3584e4"
         id="stop6"
         style="stop-color:#a34b49;stop-opacity:1" /><stop
         offset="1"
         stop-color="#3584e4"
         id="stop7"
         style="stop-color:#a34e4b;stop-opacity:1" /></linearGradient><linearGradient
       id="linearGradient33"
       gradientUnits="userSpaceOnUse"
       x1="20"
       x2="108"
       y1="54"
       y2="54"
       gradientTransform="translate(0,-1.9823008)"><stop
         offset="0"
         stop-color="#3584e4"
         id="stop30"
         style="stop-color:#b40000;stop-opacity:1" /><stop
         offset="0.56746006"
         stop-color="#62a0ea"
         id="stop31"
         style="stop-color:#aa0000;stop-opacity:1;" /></linearGradient><linearGradient
       id="c"
       gradientUnits="userSpaceOnUse"
       x1="20"
       x2="108.09962"
       y1="49"
       y2="49"
       gradientTransform="matrix(1,0,0,1.5862069,0,-32.051266)"><stop
         offset="0"
         stop-color="#62a0ea"
         id="stop8"
         style="stop-color:#ad5f5b;stop-opacity:1" /><stop
         offset="0.01514272"
         stop-color="#8bb9f0"
         id="stop9"
         style="stop-color:#b66262;stop-opacity:1" /><stop
         offset="0.08896804"
         stop-color="#62a0ea"
         id="stop10"
         style="stop-color:#a34b49;stop-opacity:1" /><stop
         offset="1"
         stop-color="#62a0ea"
         id="stop11"
         style="stop-color:#9e4b49;stop-opacity:1" /></linearGradient><linearGradient
       id="linearGradient40"
       inkscape:collect="always"><stop
         style="stop-color:#ede4d7;stop-opacity:1;"
         offset="0"
         id="stop39" /><stop
         style="stop-color:#fcfbf9;stop-opacity:1;"
         offset="0.84838867"
         id="stop23" /><stop
         style="stop-color:#ede4d7;stop-opacity:1;"
         offset="1"
         id="stop40" /></linearGradient><linearGradient
       inkscape:collect="always"
       xlink:href="#linearGradient20"
       id="linearGradient15"
       gradientUnits="userSpaceOnUse"
       gradientTransform="matrix(0.23404256,0,0,0.2477876,-88.085109,58.548664)"
       x1="380.85001"
       y1="120"
       x2="416"
       y2="120" /><clipPath
       id="f-30-4"><rect
         height="152"
         width="192"
         id="rect6-30-0"
         x="0"
         y="0" /></clipPath><mask
       id="e-9-0"><g
         filter="url(#b)"
         id="g5-2-4"
         style="filter:url(#b-4-2)"><rect
           fill-opacity="0.1"
           height="128"
           width="128"
           id="rect5-5-6"
           x="0"
           y="0" /></g></mask><filter
       id="b-4-2"
       height="1"
       width="1"
       x="0"
       y="0"><feColorMatrix
         in="SourceGraphic"
         type="matrix"
         values="0 0 0 0 1 0 0 0 0 1 0 0 0 0 1 0 0 0 1 0"
         id="feColorMatrix3-0-6" /></filter><linearGradient
       id="r"
       gradientUnits="userSpaceOnUse"
       x1="46"
       x2="46"
       y1="108"
       y2="102"
       gradientTransform="translate(-99.063832,8.088484)"><stop
         offset="0"
         stop-color="#ed333b"
         id="stop21" /><stop
         offset="1"
         stop-color="#c01c28"
         id="stop22" /></linearGradient><clipPath
       id="q"><rect
         height="152"
         width="192"
         id="rect21"
         x="0"
         y="0" /></clipPath><mask
       id="o"><g
         filter="url(#d)"
         id="g20"><rect
           fill-opacity="0.1"
           height="128"
           width="128"
           id="rect20"
           x="0"
           y="0" /></g></mask><filter
       id="d"
       height="1"
       width="1"
       x="0"
       y="0"><feColorMatrix
         in="SourceGraphic"
         type="matrix"
         values="0 0 0 0 1 0 0 0 0 1 0 0 0 0 1 0 0 0 1 0"
         id="feColorMatrix11" /></filter><linearGradient
       id="p"
       gradientTransform="matrix(0.745098,0,0,1,18.705883,-158)"
       x1="42"
       x2="93"
       xlink:href="#f"
       y1="273"
       y2="273" /><linearGradient
       id="f"
       gradientUnits="userSpaceOnUse"><stop
         offset="0"
         stop-opacity="0"
         id="stop12" /><stop
         offset="0.2"
         id="stop13" /><stop
         offset="0.8"
         stop-opacity="0.94902"
         id="stop14-3" /><stop
         offset="1"
         stop-opacity="0"
         id="stop15-6" /></linearGradient><clipPath
       id="h"><rect
         height="152"
         width="192"
         id="rect15"
         x="0"
         y="0" /></clipPath><mask
       id="e"><g
         filter="url(#d)"
         id="g11"><rect
           fill-opacity="0.1"
           height="128"
           width="128"
           id="rect11"
           x="0"
           y="0" /></g></mask><filter
       id="filter1"
       height="1"
       width="1"
       x="0"
       y="0"><feColorMatrix
         in="SourceGraphic"
         type="matrix"
         values="0 0 0 0 1 0 0 0 0 1 0 0 0 0 1 0 0 0 1 0"
         id="feColorMatrix1" /></filter><linearGradient
       id="g"
       gradientTransform="matrix(1.372549,0,0,1,-19.647058,-154)"
       x1="42"
       x2="93"
       xlink:href="#f"
       y1="273"
       y2="273" /><clipPath
       id="k"><rect
         height="152"
         width="192"
         id="rect17"
         x="0"
         y="0" /></clipPath><mask
       id="i"><g
         filter="url(#d)"
         id="g16"><rect
           fill-opacity="0.1"
           height="128"
           width="128"
           id="rect16"
           x="0"
           y="0" /></g></mask><filter
       id="filter4"
       height="1"
       width="1"
       x="0"
       y="0"><feColorMatrix
         in="SourceGraphic"
         type="matrix"
         values="0 0 0 0 1 0 0 0 0 1 0 0 0 0 1 0 0 0 1 0"
         id="feColorMatrix4" /></filter><linearGradient
       id="j"
       gradientTransform="matrix(1.45098,0,0,1,-26.941177,-150)"
       x1="42"
       x2="93"
       xlink:href="#f"
       y1="273"
       y2="273" /><clipPath
       id="n"><rect
         height="152"
         width="192"
         id="rect19"
         x="0"
         y="0" /></clipPath><mask
       id="l"><g
         filter="url(#d)"
         id="g18"><rect
           fill-opacity="0.1"
           height="128"
           width="128"
           id="rect18"
           x="0"
           y="0" /></g></mask><filter
       id="filter8"
       height="1"
       width="1"
       x="0"
       y="0"><feColorMatrix
         in="SourceGraphic"
         type="matrix"
         values="0 0 0 0 1 0 0 0 0 1 0 0 0 0 1 0 0 0 1 0"
         id="feColorMatrix8" /></filter><linearGradient
       id="m"
       gradientTransform="matrix(1.176471,0,0,1,-1.411765,-146)"
       x1="42"
       x2="93"
       xlink:href="#f"
       y1="273"
       y2="273" /><linearGradient
       id="r-3"
       gradientUnits="userSpaceOnUse"
       x1="46"
       x2="46"
       y1="108"
       y2="102"
       gradientTransform="matrix(0.63044807,0,0,0.60993867,-98.06415,-110.7093)"><stop
         offset="0"
         stop-color="#ed333b"
         id="stop21-6" /><stop
         offset="1"
         stop-color="#c01c28"
         id="stop22-0" /></linearGradient><clipPath
       id="q-6"><rect
         height="152"
         width="192"
         id="rect21-2"
         x="0"
         y="0" /></clipPath><mask
       id="o-6"><g
         filter="url(#d)"
         id="g20-1"
         style="filter:url(#d-7)"><rect
           fill-opacity="0.1"
           height="128"
           width="128"
           id="rect20-8"
           x="0"
           y="0" /></g></mask><filter
       id="d-7"
       height="1"
       width="1"
       x="0"
       y="0"><feColorMatrix
         in="SourceGraphic"
         type="matrix"
         values="0 0 0 0 1 0 0 0 0 1 0 0 0 0 1 0 0 0 1 0"
         id="feColorMatrix11-9" /></filter><clipPath
       id="h-7"><rect
         height="152"
         width="192"
         id="rect15-5"
         x="0"
         y="0" /></clipPath><mask
       id="e-9"><g
         filter="url(#d)"
         id="g11-2"
         style="filter:url(#d-7)"><rect
           fill-opacity="0.1"
           height="128"
           width="128"
           id="rect11-2"
           x="0"
           y="0" /></g></mask><filter
       id="filter1-8"
       height="1"
       width="1"
       x="0"
       y="0"><feColorMatrix
         in="SourceGraphic"
         type="matrix"
         values="0 0 0 0 1 0 0 0 0 1 0 0 0 0 1 0 0 0 1 0"
         id="feColorMatrix1-9" /></filter><clipPath
       id="k-1"><rect
         height="152"
         width="192"
         id="rect17-2"
         x="0"
         y="0" /></clipPath><mask
       id="i-9"><g
         filter="url(#d)"
         id="g16-3"
         style="filter:url(#d-7)"><rect
           fill-opacity="0.1"
           height="128"
           width="128"
           id="rect16-1"
           x="0"
           y="0" /></g></mask><filter
       id="filter4-9"
       height="1"
       width="1"
       x="0"
       y="0"><feColorMatrix
         in="SourceGraphic"
         type="matrix"
         values="0 0 0 0 1 0 0 0 0 1 0 0 0 0 1 0 0 0 1 0"
         id="feColorMatrix4-4" /></filter><clipPath
       id="n-0"><rect
         height="152"
         width="192"
         id="rect19-3"
         x="0"
         y="0" /></clipPath><mask
       id="l-6"><g
         filter="url(#d)"
         id="g18-1"
         style="filter:url(#d-7)"><rect
           fill-opacity="0.1"
           height="128"
           width="128"
           id="rect18-0"
           x="0"
           y="0" /></g></mask><filter
       id="filter8-6"
       height="1"
       width="1"
       x="0"
       y="0"><feColorMatrix
         in="SourceGraphic"
         type="matrix"
         values="0 0 0 0 1 0 0 0 0 1 0 0 0 0 1 0 0 0 1 0"
         id="feColorMatrix8-3" /></filter><linearGradient
       inkscape:collect="always"
       xlink:href="#linearGradient150"
       id="linearGradient151"
       x1="-414.26166"
       y1="370.31442"
       x2="-394.26166"
       y2="392.31448"
       gradientUnits="userSpaceOnUse"
       gradientTransform="matrix(0.24887983,0,0,0.28797755,-43.113051,302.19854)" /><linearGradient
       id="linearGradient150"
       inkscape:collect="always"><stop
         style="stop-color:#c6300b;stop-opacity:1;"
         offset="0"
         id="stop150" /><stop
         style="stop-color:#e82b0d;stop-opacity:1;"
         offset="1"
         id="stop151" /></linearGradient></defs><metadata
     id="metadata4"><rdf:RDF><cc:Work
         rdf:about=""><dc:format>image/svg+xml</dc:format><dc:type
           rdf:resource="http://purl.org/dc/dcmitype/StillImage" /><dc:creator><cc:Agent><dc:title>GNOME Design Team</dc:title></cc:Agent></dc:creator><dc:source /><cc:license
           rdf:resource="http://creativecommons.org/licenses/by-sa/4.0/" /><dc:title>Adwaita Icon Template</dc:title><dc:subject><rdf:Bag /></dc:subject><dc:date /><dc:rights><cc:Agent><dc:title /></cc:Agent></dc:rights><dc:publisher><cc:Agent><dc:title /></cc:Agent></dc:publisher><dc:identifier /><dc:relation /><dc:language /><dc:coverage /><dc:description /><dc:contributor><cc:Agent><dc:title /></cc:Agent></dc:contributor></cc:Work><cc:License
         rdf:about="http://creativecommons.org/licenses/by-sa/4.0/"><cc:permits
           rdf:resource="http://creativecommons.org/ns#Reproduction" /><cc:permits
           rdf:resource="http://creativecommons.org/ns#Distribution" /><cc:requires
           rdf:resource="http://creativecommons.org/ns#Notice" /><cc:requires
           rdf:resource="http://creativecommons.org/ns#Attribution" /><cc:permits
           rdf:resource="http://creativecommons.org/ns#DerivativeWorks" /><cc:requires
           rdf:resource="http://creativecommons.org/ns#ShareAlike" /></cc:License></rdf:RDF></metadata><g
     transform="translate(0,-172)"
     style="display:inline"
     id="layer1"><g
       style="display:none"
       id="layer3"><circle
         style="display:inline;opacity:0.1;vector-effect:none;fill:none;fill-opacity:1;stroke:#000000;stroke-width:0.99000001;stroke-linecap:butt;stroke-linejoin:miter;stroke-miterlimit:4;stroke-dasharray:0.99000001, 0.99000001;stroke-dashoffset:0;stroke-opacity:1;marker:none;marker-start:none;marker-mid:none;marker-end:none;paint-order:normal;enable-background:new"
         id="circle2892"
         r="59.504131"
         cy="236"
         cx="64.000031" /><rect
         style="display:inline;opacity:0.1;vector-effect:none;fill:none;fill-opacity:1;stroke:#000000;stroke-width:0.99000001;stroke-linecap:butt;stroke-linejoin:miter;stroke-miterlimit:4;stroke-dasharray:0.99000001, 0.99000001;stroke-dashoffset:0;stroke-opacity:1;marker:none;marker-start:none;marker-mid:none;marker-end:none;paint-order:normal;enable-background:new"
         id="rect2894"
         width="87.009987"
         height="111.01005"
         x="20.495007"
         y="180.49496"
         rx="8.701004"
         ry="7.9292889" /><rect
         style="display:inline;opacity:0.1;vector-effect:none;fill:none;fill-opacity:1;stroke:#000000;stroke-width:0.99000001;stroke-linecap:butt;stroke-linejoin:miter;stroke-miterlimit:4;stroke-dasharray:0.99000001, 0.99000001;stroke-dashoffset:0;stroke-opacity:1;marker:none;marker-start:none;marker-mid:none;marker-end:none;paint-order:normal;enable-background:new"
         id="rect2896"
         width="103.00952"
         height="103.00952"
         x="12.495266"
         y="184.49524"
         rx="7.9238095"
         ry="7.9238095" /><rect
         style="display:inline;opacity:0.1;vector-effect:none;fill:none;fill-opacity:1;stroke:#000000;stroke-width:0.99000001;stroke-linecap:butt;stroke-linejoin:miter;stroke-miterlimit:4;stroke-dasharray:0.99000001, 0.99000001;stroke-dashoffset:0;stroke-opacity:1;marker:none;marker-start:none;marker-mid:none;marker-end:none;paint-order:normal;enable-background:new"
         id="rect2898"
         width="111.01004"
         height="87.010048"
         x="8.4950066"
         y="200.49496"
         rx="7.9292889"
         ry="8.701005" /><path
         style="display:inline;fill:none;stroke:#62a0ea;stroke-width:2;stroke-linecap:butt;stroke-linejoin:miter;stroke-miterlimit:4;stroke-dasharray:none;stroke-opacity:1;enable-background:new"
         d="M 2.6203015e-5,288.99999 H 128.00003"
         id="path2900" /></g><g
       style="display:inline"
       id="layer9"><g
         transform="translate(192.50002,2.5)"
         id="g1308"
         style="display:inline;enable-background:new"><g
           id="g35"
           transform="matrix(1.0681818,0,0,1.0089286,-94.40911,163.42857)"><g
             style="display:inline;enable-background:new"
             id="g2"
             transform="matrix(0.93617023,0,0,0.99115041,-91.829785,187.39823)"><g
               transform="translate(0,-172)"
               style="display:inline"
               id="layer1-5"><g
                 style="display:none"
                 id="layer3-8"><circle
                   style="display:inline;opacity:0.1;vector-effect:none;fill:none;fill-opacity:1;stroke:#000000;stroke-width:0.99;stroke-linecap:butt;stroke-linejoin:miter;stroke-miterlimit:4;stroke-dasharray:0.99, 0.99;stroke-dashoffset:0;stroke-opacity:1;marker:none;marker-start:none;marker-mid:none;marker-end:none;paint-order:normal;enable-background:new"
                   id="circle2892-7"
                   r="59.504131"
                   cy="236"
                   cx="64.000031" /><rect
                   style="display:inline;opacity:0.1;vector-effect:none;fill:none;fill-opacity:1;stroke:#000000;stroke-width:0.99;stroke-linecap:butt;stroke-linejoin:miter;stroke-miterlimit:4;stroke-dasharray:0.99, 0.99;stroke-dashoffset:0;stroke-opacity:1;marker:none;marker-start:none;marker-mid:none;marker-end:none;paint-order:normal;enable-background:new"
                   id="rect2894-0"
                   width="87.009987"
                   height="111.01005"
                   x="20.495007"
                   y="180.49496"
                   rx="8.701004"
                   ry="7.9292889" /><rect
                   style="display:inline;opacity:0.1;vector-effect:none;fill:none;fill-opacity:1;stroke:#000000;stroke-width:0.99;stroke-linecap:butt;stroke-linejoin:miter;stroke-miterlimit:4;stroke-dasharray:0.99, 0.99;stroke-dashoffset:0;stroke-opacity:1;marker:none;marker-start:none;marker-mid:none;marker-end:none;paint-order:normal;enable-background:new"
                   id="rect2896-4"
                   width="103.00952"
                   height="103.00952"
                   x="12.495266"
                   y="184.49524"
                   rx="7.9238095"
                   ry="7.9238095" /><rect
                   style="display:inline;opacity:0.1;vector-effect:none;fill:none;fill-opacity:1;stroke:#000000;stroke-width:0.99;stroke-linecap:butt;stroke-linejoin:miter;stroke-miterlimit:4;stroke-dasharray:0.99, 0.99;stroke-dashoffset:0;stroke-opacity:1;marker:none;marker-start:none;marker-mid:none;marker-end:none;paint-order:normal;enable-background:new"
                   id="rect2898-8"
                   width="111.01004"
                   height="87.010048"
                   x="8.4950066"
                   y="200.49496"
                   rx="7.9292889"
                   ry="8.701005" /><path
                   style="display:inline;fill:none;stroke:#62a0ea;stroke-width:2;stroke-linecap:butt;stroke-linejoin:miter;stroke-miterlimit:4;stroke-dasharray:none;stroke-opacity:1;enable-background:new"
                   d="M 2.6203015e-5,288.99999 H 128.00003"
                   id="path2900-0" /></g><g
                 style="display:inline"
                 id="layer9-4"><g
                   transform="translate(192.50002,2.5)"
                   id="g1308-2"
                   style="display:inline;enable-background:new"><g
                     id="g35-2"
                     transform="matrix(1.0681818,0,0,1.0089286,-94.40911,163.42857)"><g
                       id="g1"
                       transform="matrix(0.99999995,0,0,1.166667,-171.83395,-309.56528)"><g
                         id="g3"
                         transform="matrix(0.79124571,0,0,0.88072613,4.6918411,20.835057)"
                         style="fill:#d03932;fill-opacity:1" /></g><g
                       clip-path="url(#q-6)"
                       mask="url(#o-6)"
                       transform="translate(-106.25987,-189.74778)"
                       id="g34-9" /><g
                       id="g8"
                       transform="translate(0.46809555)"><g
                         id="g7"><g
                           id="g6"><g
                             id="g5"><g
                               id="g15"
                               transform="matrix(1.0101497,0,0,1,0.74200461,-181.38052)"><path
                                 id="rect954-3-6"
                                 d="M -73.106385,33.769904 V 124.95574 H 1.787234 c 4.1491065,0 7.489362,-3.53642 7.489362,-7.9292 V 41.699107 c 0,-4.392778 -3.3402555,-7.929203 -7.489362,-7.929203 z"
                                 style="display:inline;fill:#873837;fill-opacity:1;stroke:none;stroke-width:5.77961;stroke-linecap:butt;stroke-linejoin:miter;stroke-miterlimit:4;stroke-dasharray:none;stroke-dashoffset:0;stroke-opacity:1;marker:none;marker-start:none;marker-mid:none;marker-end:none;paint-order:normal;enable-background:new" /><path
                                 id="rect954-3-6-1-1"
                                 d="M -71.234045,53.592912 V 122.97344 H 1.787234 c 4.1491065,0 7.489362,-3.53642 7.489362,-7.9292 V 61.522115 c 0,-4.392778 -3.3402555,-7.929203 -7.489362,-7.929203 z"
                                 style="display:inline;fill:url(#linearGradient15);fill-opacity:1;stroke:none;stroke-width:5.77961;stroke-linecap:butt;stroke-linejoin:miter;stroke-miterlimit:4;stroke-dasharray:none;stroke-dashoffset:0;stroke-opacity:1;marker:none;marker-start:none;marker-mid:none;marker-end:none;paint-order:normal;enable-background:new" /><path
                                 id="rect954-3-2-0"
                                 d="M -73.106385,25.154519 V 101.16813 H 1.787234 c 4.1491065,0 7.489362,-3.060361 7.489362,-6.861813 V 32.01633 c 0,-3.801443 -3.3402555,-6.861811 -7.489362,-6.861811 z"
                                 style="display:inline;fill:#873837;fill-opacity:1;stroke:none;stroke-width:5.37655;stroke-linecap:butt;stroke-linejoin:miter;stroke-miterlimit:4;stroke-dasharray:none;stroke-dashoffset:0;stroke-opacity:1;marker:none;marker-start:none;marker-mid:none;marker-end:none;paint-order:normal;enable-background:new"
                                 sodipodi:nodetypes="ccssssc" /><path
                                 id="rect954-3-2-9-0-3-4"
                                 d="M -73.106385,13.946896 V 99.452679 H 1.787234 c 4.1491065,0 7.489362,-3.060371 7.489362,-6.861813 V 20.808707 c 0,-3.801443 -3.3402555,-6.861811 -7.489362,-6.861811 z"
                                 style="display:inline;fill:#a34e4b;fill-opacity:1;stroke:none;stroke-width:5.37655;stroke-linecap:butt;stroke-linejoin:miter;stroke-miterlimit:4;stroke-dasharray:none;stroke-dashoffset:0;stroke-opacity:1;marker:none;marker-start:none;marker-mid:none;marker-end:none;paint-order:normal;enable-background:new"
                                 sodipodi:nodetypes="ccssssc" /><path
                                 style="display:inline;opacity:0.187;fill:#ffffff;fill-opacity:1;stroke:none;stroke-width:5.3192;stroke-linecap:butt;stroke-linejoin:miter;stroke-miterlimit:4;stroke-dasharray:none;stroke-dashoffset:0;stroke-opacity:1;marker:none;marker-start:none;marker-mid:none;marker-end:none;paint-order:normal;enable-background:new"
                                 d="m -70.640622,13.946903 h 1.872341 v 85.505776 h -1.872341 z"
                                 id="rect1366-2-2"
                                 sodipodi:nodetypes="ccccc" /><path
                                 style="display:inline;opacity:0.57995;fill:#873837;fill-opacity:1;stroke:none;stroke-width:5.3192;stroke-linecap:butt;stroke-linejoin:miter;stroke-miterlimit:4;stroke-dasharray:none;stroke-dashoffset:0;stroke-opacity:1;marker:none;marker-start:none;marker-mid:none;marker-end:none;paint-order:normal;enable-background:new"
                                 d="m -69.430254,13.946903 h 1.872341 v 85.505776 h -1.872341 z"
                                 id="path15-2"
                                 sodipodi:nodetypes="ccccc" /><path
                                 style="font-size:51.3743px;font-family:'RIT Rachana';-inkscape-font-specification:'RIT Rachana';fill:#2e1414;fill-opacity:0.376471;stroke-width:0.328474"
                                 d="m -27.037286,75.387303 v -1.806784 h -0.780142 c -0.975177,0 -1.633422,-0.154867 -1.999113,-0.464602 -0.341312,-0.309734 -0.731384,-1.08407 -1.218972,-2.323008 L -41.396771,43.716952 h -1.682181 l -9.361702,25.269172 c -0.731383,1.961652 -1.340869,3.20059 -1.828457,3.742626 -0.487589,0.567846 -1.218972,0.851769 -2.242908,0.851769 h -0.560727 v 1.806784 h 10.775709 v -1.806784 h -0.828901 c -2.194149,0 -3.291223,-0.851769 -3.291223,-2.55531 0,-0.464601 0.121897,-1.08407 0.39007,-1.884217 l 1.340869,-3.923303 h 10.75133 l 2.218528,5.962388 c 0.195036,0.619469 0.316933,1.032448 0.316933,1.213127 0,0.361357 -0.243795,0.64528 -0.707004,0.85177 -0.463209,0.20649 -1.072695,0.335545 -1.828457,0.335545 h -1.70656 v 1.806784 z M -38.788173,63.12698 H -47.8817 l 4.510194,-12.363568 z m 35.593971,9.730825 c -0.511968,0.180679 -0.8045212,0.283924 -0.8532801,0.283924 -0.6582447,0 -1.0970744,-0.258112 -1.3652482,-0.800148 -0.2681738,-0.516224 -0.3900709,-1.393805 -0.3900709,-2.632743 v -9.937315 c 0,-3.071534 -0.7070035,-5.162241 -2.0966308,-6.246312 -1.4140081,-1.109881 -3.388742,-1.651918 -5.948582,-1.651918 -2.559841,0 -4.680851,0.593659 -6.314273,1.780974 -1.633422,1.161505 -2.462323,2.632744 -2.462323,4.413717 0,0.929203 0.219415,1.677728 0.682624,2.219763 0.43883,0.542035 0.999558,0.82596 1.706561,0.82596 0.682624,0 1.243351,-0.232301 1.657801,-0.748525 0.414451,-0.464602 0.633866,-1.006638 0.633866,-1.548673 0,-0.567847 -0.146277,-1.213127 -0.46321,-1.935841 -0.316933,-0.722714 -0.463209,-1.109881 -0.463209,-1.135693 0,-0.542036 0.414451,-1.006637 1.218971,-1.393805 0.828902,-0.387168 1.950355,-0.593658 3.339983,-0.593658 1.389628,0 2.511082,0.412979 3.339982,1.238938 0.828901,0.800148 1.2433509,2.271386 1.2433509,4.387905 v 1.987464 c -5.1928189,0.955014 -8.8497339,2.116518 -10.8976059,3.484512 -2.096631,1.342183 -3.120568,3.20059 -3.120568,5.601032 0,1.729351 0.585107,3.097345 1.75532,4.129793 1.194592,1.032448 2.754875,1.548673 4.72961,1.548673 3.169326,0 5.753545,-1.213126 7.7526589,-3.613569 0.365691,1.161504 0.8289005,1.987463 1.4383868,2.452065 0.6094858,0.516224 1.414007,0.748525 2.4135636,0.748525 0.9995568,0 1.9259752,-0.283923 2.7792553,-0.82596 0.8532801,-0.542035 1.2677305,-1.08407 1.2677305,-1.574483 0,-0.490413 -0.1462766,-0.748525 -0.390071,-0.748525 -0.2925532,0 -0.6826241,0.103245 -1.1945921,0.283923 z m -6.5336881,-7.27876 c 0,1.522861 -0.04876,2.581121 -0.170656,3.148967 -0.1218979,0.61947 -0.4144509,1.316371 -0.8776599,2.11652 -0.487588,0.800147 -1.218971,1.497049 -2.194149,2.064896 -0.950798,0.593658 -1.950354,0.877581 -2.97429,0.877581 -0.999557,0 -1.852837,-0.361357 -2.559841,-1.135693 -0.707003,-0.722714 -1.048315,-1.70354 -1.048315,-2.890856 0,-1.187315 0.268174,-2.168141 0.804521,-2.916666 1.048316,-1.471239 4.046986,-2.658554 9.0203899,-3.587758 z"
                                 id="path1-0"
                                 aria-label="Aa" /><path
                                 style="font-size:51.3743px;font-family:'RIT Rachana';-inkscape-font-specification:'RIT Rachana';fill:#f4e3d7;fill-opacity:1;stroke-width:0.328474"
                                 d="m -27.916668,73.054577 v -1.806784 h -0.780142 c -0.975177,0 -1.633422,-0.154867 -1.999113,-0.464602 -0.341312,-0.309734 -0.731384,-1.08407 -1.218972,-2.323008 L -42.276153,41.384226 h -1.682181 l -9.361702,25.269172 c -0.731383,1.961652 -1.340869,3.20059 -1.828457,3.742626 -0.487589,0.567846 -1.218972,0.851769 -2.242908,0.851769 h -0.560727 v 1.806784 h 10.775709 v -1.806784 h -0.828901 c -2.194149,0 -3.291223,-0.851769 -3.291223,-2.55531 0,-0.464601 0.121897,-1.08407 0.39007,-1.884217 l 1.340869,-3.923303 h 10.75133 l 2.218528,5.962388 c 0.195036,0.619469 0.316933,1.032448 0.316933,1.213127 0,0.361357 -0.243795,0.64528 -0.707004,0.85177 -0.463209,0.20649 -1.072695,0.335545 -1.828457,0.335545 h -1.70656 v 1.806784 z M -39.667555,60.794254 h -9.093527 l 4.510194,-12.363568 z m 35.5939711,9.730825 c -0.511968,0.180679 -0.8045212,0.283924 -0.8532801,0.283924 -0.6582447,0 -1.0970744,-0.258112 -1.3652482,-0.800148 -0.2681738,-0.516224 -0.3900709,-1.393805 -0.3900709,-2.632743 v -9.937315 c 0,-3.071534 -0.7070035,-5.162241 -2.0966308,-6.246312 -1.4140081,-1.109881 -3.3887421,-1.651918 -5.9485821,-1.651918 -2.559841,0 -4.680851,0.593659 -6.314273,1.780974 -1.633422,1.161505 -2.462323,2.632744 -2.462323,4.413717 0,0.929203 0.219415,1.677728 0.682624,2.219763 0.43883,0.542035 0.999558,0.82596 1.706561,0.82596 0.682624,0 1.243351,-0.232301 1.657801,-0.748525 0.414451,-0.464602 0.633866,-1.006638 0.633866,-1.548673 0,-0.567847 -0.146277,-1.213127 -0.46321,-1.935841 -0.316933,-0.722714 -0.463209,-1.109881 -0.463209,-1.135693 0,-0.542036 0.414451,-1.006637 1.218971,-1.393805 0.828902,-0.387168 1.950355,-0.593658 3.339983,-0.593658 1.389628,0 2.511082,0.412979 3.339982,1.238938 0.828901,0.800148 1.243351,2.271386 1.243351,4.387905 v 1.987464 c -5.192819,0.955014 -8.849734,2.116518 -10.897606,3.484512 -2.096631,1.342183 -3.120568,3.20059 -3.120568,5.601032 0,1.729351 0.585107,3.097345 1.75532,4.129793 1.194592,1.032448 2.754875,1.548673 4.72961,1.548673 3.169326,0 5.753545,-1.213126 7.752659,-3.613569 0.365691,1.161504 0.8289005,1.987463 1.4383868,2.452065 0.6094858,0.516224 1.414007,0.748525 2.4135636,0.748525 0.9995568,0 1.9259752,-0.283923 2.7792553,-0.82596 0.8532801,-0.542035 1.2677305,-1.08407 1.2677305,-1.574483 0,-0.490413 -0.1462766,-0.748525 -0.390071,-0.748525 -0.2925532,0 -0.6826241,0.103245 -1.1945921,0.283923 z m -6.5336881,-7.27876 c 0,1.522861 -0.04876,2.581121 -0.170656,3.148967 -0.121898,0.61947 -0.414451,1.316371 -0.87766,2.11652 -0.487588,0.800147 -1.218971,1.497049 -2.194149,2.064896 -0.950798,0.593658 -1.950354,0.877581 -2.97429,0.877581 -0.999557,0 -1.852837,-0.361357 -2.559841,-1.135693 -0.707003,-0.722714 -1.048315,-1.70354 -1.048315,-2.890856 0,-1.187315 0.268174,-2.168141 0.804521,-2.916666 1.048316,-1.471239 4.046986,-2.658554 9.02039,-3.587758 z"
                                 id="path14-5"
                                 aria-label="Aa" /><g
                                 id="g18-5"
                                 transform="matrix(0.9384831,0,0,0.91374031,166.20679,-268.66643)"><g
                                   id="g35-3-2"
                                   transform="matrix(1.0681818,0,0,1.0089286,-84.363635,-0.5714304)"><path
                                   style="font-size:51.3743px;font-family:'RIT Rachana';-inkscape-font-specification:'RIT Rachana';display:inline;fill:#fcf9f3;fill-opacity:1;stroke-width:0.341606;enable-background:new"
                                   d="m -114.66633,371.22157 v -1.95895 h -0.77821 c -0.97278,0 -1.62939,-0.16791 -1.99418,-0.50373 -0.34048,-0.33583 -0.72959,-1.17537 -1.21598,-2.51865 l -10.33572,-29.35638 h -1.67804 l -9.33863,27.39741 c -0.72957,2.12687 -1.33756,3.47016 -1.82394,4.05784 -0.48639,0.61568 -1.21596,0.92351 -2.23738,0.92351 h -0.55935 v 1.95895 h 10.74916 v -1.95895 h -0.82686 c -2.18874,0 -3.28311,-0.92351 -3.28311,-2.77052 0,-0.50373 0.12159,-1.17537 0.38911,-2.04291 l 1.33755,-4.25373 h 10.72484 l 2.21306,6.46456 c 0.19456,0.67164 0.31615,1.11939 0.31615,1.31528 0,0.3918 -0.24319,0.69963 -0.70526,0.92352 -0.46206,0.22388 -1.07005,0.3638 -1.82395,0.3638 h -1.70235 v 1.95895 z m -11.72192,-13.29291 h -9.0711 l 4.49907,-13.40488 z m 35.506252,10.55039 c -0.510718,0.19588 -0.802548,0.30783 -0.851187,0.30783 -0.656618,0 -1.094366,-0.27986 -1.361886,-0.86754 -0.267509,-0.5597 -0.389099,-1.5112 -0.389099,-2.85448 v -10.77428 c 0,-3.33021 -0.705267,-5.59702 -2.091463,-6.77238 -1.410535,-1.20337 -3.380397,-1.79106 -5.933927,-1.79106 -2.55353,0 -4.66931,0.64367 -6.29872,1.93097 -1.62938,1.25935 -2.45625,2.85449 -2.45625,4.78546 0,1.00747 0.21889,1.81904 0.68095,2.40673 0.43775,0.58768 0.99709,0.89551 1.70234,0.89551 0.68096,0 1.2403,-0.25186 1.65373,-0.81156 0.41343,-0.50373 0.63229,-1.09142 0.63229,-1.6791 0,-0.61568 -0.14591,-1.31531 -0.46206,-2.0989 -0.31614,-0.78357 -0.46207,-1.20334 -0.46207,-1.23133 0,-0.58768 0.41343,-1.09142 1.21597,-1.51119 0.82686,-0.41978 1.94554,-0.64367 3.33175,-0.64367 1.38621,0 2.504902,0.44776 3.331748,1.34328 0.826867,0.86755 1.240296,2.46269 1.240296,4.75746 v 2.15487 c -5.180024,1.03545 -8.827924,2.29478 -10.870754,3.77799 -2.09145,1.45522 -3.11288,3.47015 -3.11288,6.07276 0,1.87501 0.58368,3.35823 1.751,4.47763 1.19164,1.11939 2.74809,1.67911 4.71795,1.67911 3.16152,0 5.739369,-1.31531 7.733553,-3.91792 0.364789,1.25932 0.826858,2.15484 1.434846,2.65858 0.607978,0.5597 1.410515,0.81157 2.407611,0.81157 0.997097,0 1.921233,-0.30783 2.772411,-0.89552 0.851166,-0.58768 1.264605,-1.17538 1.264605,-1.70709 0,-0.53172 -0.145919,-0.81157 -0.389119,-0.81157 -0.291829,0 -0.680937,0.11194 -1.191635,0.30784 z m -6.517588,-7.89181 c 0,1.65113 -0.04868,2.79853 -0.170238,3.41418 -0.1216,0.67164 -0.41343,1.42724 -0.875498,2.29478 -0.486389,0.86755 -1.21597,1.62314 -2.188738,2.23882 -0.94847,0.64364 -1.94555,0.9515 -2.96696,0.9515 -0.9971,0 -1.84826,-0.39181 -2.55354,-1.23135 -0.70525,-0.7836 -1.04572,-1.84703 -1.04572,-3.13434 0,-1.28733 0.2675,-2.35075 0.80254,-3.16233 1.04572,-1.59514 4.037,-2.88246 8.998154,-3.88993 z"
                                   id="path10"
                                   aria-label="Aa" /><path
                                   id="rect144"
                                   style="display:inline;fill:url(#linearGradient151);fill-opacity:1;stroke:none;stroke-width:1.53174;stroke-linejoin:round;stroke-miterlimit:1.4;stroke-opacity:1;enable-background:new"
                                   d="m -151.19201,408.84079 h 9.95519 v 12.67104 c -0.0177,-0.005 -4.73528,-4.00641 -4.77197,-4.03172 l -5.18322,4.03172 z"
                                   sodipodi:nodetypes="cccccc" /></g></g><path
                                 d="M -73.10638,32.609508 H 9.276596 v 51.87831 H -73.10638 Z"
                                 fill="#62a0ea"
                                 id="path41"
                                 style="display:inline;opacity:0.1399;fill:#ececec;fill-opacity:1;stroke-width:1.01838;enable-background:new"
                                 sodipodi:nodetypes="ccccc" /></g></g></g></g></g></g></g></g></g></g></g></g></g></g></svg>
