<?xml version="1.0" encoding="UTF-8" standalone="no"?>
<svg
   viewBox="0 0 128 128"
   style="display:inline;enable-background:new"
   version="1.0"
   id="svg11300"
   height="128"
   width="128"
   sodipodi:docname="io.github.fastrizwaan.diction.svg"
   inkscape:version="1.4.3 (0d15f75042, 2025-12-25)"
   xml:space="preserve"
   xmlns:inkscape="http://www.inkscape.org/namespaces/inkscape"
   xmlns:sodipodi="http://sodipodi.sourceforge.net/DTD/sodipodi-0.dtd"
   xmlns:xlink="http://www.w3.org/1999/xlink"
   xmlns="http://www.w3.org/2000/svg"
   xmlns:svg="http://www.w3.org/2000/svg"
   xmlns:rdf="http://www.w3.org/1999/02/22-rdf-syntax-ns#"
   xmlns:cc="http://creativecommons.org/ns#"
   xmlns:dc="http://purl.org/dc/elements/1.1/"><sodipodi:namedview
     id="namedview1"
     pagecolor="#ffffff"
     bordercolor="#000000"
     borderopacity="0.25"
     inkscape:showpageshadow="2"
     inkscape:pageopacity="0.0"
     inkscape:pagecheckerboard="0"
     inkscape:deskcolor="#d1d1d1"
     inkscape:zoom="1"
     inkscape:cx="68"
     inkscape:cy="18.5"
     inkscape:window-width="1216"
     inkscape:window-height="1190"
     inkscape:window-x="26"
     inkscape:window-y="23"
     inkscape:window-maximized="0"
     inkscape:current-layer="g35-3-2" /><title
     id="title4162">Adwaita Icon Template</title><defs
     id="defs3"><linearGradient
       id="linearGradient20"
       inkscape:collect="always"><stop
         style="stop-color:#ebe4d9;stop-opacity:1;"
         offset="0"
         id="stop18" /><stop
         style="stop-color:#fcfbf9;stop-opacity:1;"
         offset="0.84838867"
         id="stop19" /><stop
         style="stop-color:#ede4d7;stop-opacity:1;"
         offset="1"
         id="stop20" /></linearGradient><linearGradient
       id="linearGradient1458"><stop
         id="stop1452"
         offset="0"
         style="stop-color:#deddda;stop-opacity:1" /><stop
         style="stop-color:#ffffff;stop-opacity:1"
         offset="0.51104856"
         id="stop1454" /><stop
         id="stop1456"
         offset="1"
         style="stop-color:#c0bfbc;stop-opacity:1" /></linearGradient><linearGradient
       gradientTransform="translate(0,640)"
       gradientUnits="userSpaceOnUse"
       y2="120"
       x2="416"
       y1="120"
       x1="384"
       id="linearGradient1053-2"
       xlink:href="#linearGradient40" /><linearGradient
       id="b"
       gradientUnits="userSpaceOnUse"
       x1="20"
       x2="108"
       y1="54"
       y2="54"
       gradientTransform="translate(0,-1.9823008)"
       xlink:href="#linearGradient33"><stop
         offset="0"
         stop-color="#3584e4"
         id="stop4"
         style="stop-color:#cf0339;stop-opacity:1;" /><stop
         offset="0.0227273"
         stop-color="#62a0ea"
         id="stop5"
         style="stop-color:#cf0a3f;stop-opacity:1;" /><stop
         offset="0.0909091"
         stop-color="#3584e4"
         id="stop6"
         style="stop-color:#a34b49;stop-opacity:1" /><stop
         offset="1"
         stop-color="#3584e4"
         id="stop7"
         style="stop-color:#a34e4b;stop-opacity:1" /></linearGradient><linearGradient
       id="linearGradient33"
       gradientUnits="userSpaceOnUse"
       x1="20"
       x2="108"
       y1="54"
       y2="54"
       gradientTransform="translate(0,-1.9823008)"><stop
         offset="0"
         stop-color="#3584e4"
         id="stop30"
         style="stop-color:#b40000;stop-opacity:1" /><stop
         offset="0.56746006"
         stop-color="#62a0ea"
         id="stop31"
         style="stop-color:#aa0000;stop-opacity:1;" /></linearGradient><linearGradient
       id="c"
       gradientUnits="userSpaceOnUse"
       x1="20"
       x2="108.09962"
       y1="49"
       y2="49"
       gradientTransform="matrix(1,0,0,1.5862069,0,-32.051266)"><stop
         offset="0"
         stop-color="#62a0ea"
         id="stop8"
         style="stop-color:#ad5f5b;stop-opacity:1" /><stop
         offset="0.01514272"
         stop-color="#8bb9f0"
         id="stop9"
         style="stop-color:#b66262;stop-opacity:1" /><stop
         offset="0.08896804"
         stop-color="#62a0ea"
         id="stop10"
         style="stop-color:#a34b49;stop-opacity:1" /><stop
         offset="1"
         stop-color="#62a0ea"
         id="stop11"
         style="stop-color:#9e4b49;stop-opacity:1" /></linearGradient><linearGradient
       id="linearGradient40"
       inkscape:collect="always"><stop
         style="stop-color:#ede4d7;stop-opacity:1;"
         offset="0"
         id="stop39" /><stop
         style="stop-color:#fcfbf9;stop-opacity:1;"
         offset="0.84838867"
         id="stop23" /><stop
         style="stop-color:#ede4d7;stop-opacity:1;"
         offset="1"
         id="stop40" /></linearGradient><linearGradient
       inkscape:collect="always"
       xlink:href="#linearGradient20"
       id="linearGradient15"
       gradientUnits="userSpaceOnUse"
       gradientTransform="translate(0,640)"
       x1="384"
       y1="120"
       x2="416"
       y2="120" /><clipPath
       id="f-30-4"><rect
         height="152"
         width="192"
         id="rect6-30-0"
         x="0"
         y="0" /></clipPath><mask
       id="e-9-0"><g
         filter="url(#b)"
         id="g5-2-4"
         style="filter:url(#b-4-2)"><rect
           fill-opacity="0.1"
           height="128"
           width="128"
           id="rect5-5-6"
           x="0"
           y="0" /></g></mask><filter
       id="b-4-2"
       height="1"
       width="1"
       x="0"
       y="0"><feColorMatrix
         in="SourceGraphic"
         type="matrix"
         values="0 0 0 0 1 0 0 0 0 1 0 0 0 0 1 0 0 0 1 0"
         id="feColorMatrix3-0-6" /></filter><linearGradient
       id="r"
       gradientUnits="userSpaceOnUse"
       x1="46"
       x2="46"
       y1="108"
       y2="102"
       gradientTransform="translate(-99.063832,8.088484)"><stop
         offset="0"
         stop-color="#ed333b"
         id="stop21" /><stop
         offset="1"
         stop-color="#c01c28"
         id="stop22" /></linearGradient><clipPath
       id="q"><rect
         height="152"
         width="192"
         id="rect21"
         x="0"
         y="0" /></clipPath><mask
       id="o"><g
         filter="url(#d)"
         id="g20"><rect
           fill-opacity="0.1"
           height="128"
           width="128"
           id="rect20"
           x="0"
           y="0" /></g></mask><filter
       id="d"
       height="1"
       width="1"
       x="0"
       y="0"><feColorMatrix
         in="SourceGraphic"
         type="matrix"
         values="0 0 0 0 1 0 0 0 0 1 0 0 0 0 1 0 0 0 1 0"
         id="feColorMatrix11" /></filter><linearGradient
       id="p"
       gradientTransform="matrix(0.745098,0,0,1,18.705883,-158)"
       x1="42"
       x2="93"
       xlink:href="#f"
       y1="273"
       y2="273" /><linearGradient
       id="f"
       gradientUnits="userSpaceOnUse"><stop
         offset="0"
         stop-opacity="0"
         id="stop12" /><stop
         offset="0.2"
         id="stop13" /><stop
         offset="0.8"
         stop-opacity="0.94902"
         id="stop14-3" /><stop
         offset="1"
         stop-opacity="0"
         id="stop15-6" /></linearGradient><clipPath
       id="h"><rect
         height="152"
         width="192"
         id="rect15"
         x="0"
         y="0" /></clipPath><mask
       id="e"><g
         filter="url(#d)"
         id="g11"><rect
           fill-opacity="0.1"
           height="128"
           width="128"
           id="rect11"
           x="0"
           y="0" /></g></mask><filter
       id="filter1"
       height="1"
       width="1"
       x="0"
       y="0"><feColorMatrix
         in="SourceGraphic"
         type="matrix"
         values="0 0 0 0 1 0 0 0 0 1 0 0 0 0 1 0 0 0 1 0"
         id="feColorMatrix1" /></filter><linearGradient
       id="g"
       gradientTransform="matrix(1.372549,0,0,1,-19.647058,-154)"
       x1="42"
       x2="93"
       xlink:href="#f"
       y1="273"
       y2="273" /><clipPath
       id="k"><rect
         height="152"
         width="192"
         id="rect17"
         x="0"
         y="0" /></clipPath><mask
       id="i"><g
         filter="url(#d)"
         id="g16"><rect
           fill-opacity="0.1"
           height="128"
           width="128"
           id="rect16"
           x="0"
           y="0" /></g></mask><filter
       id="filter4"
       height="1"
       width="1"
       x="0"
       y="0"><feColorMatrix
         in="SourceGraphic"
         type="matrix"
         values="0 0 0 0 1 0 0 0 0 1 0 0 0 0 1 0 0 0 1 0"
         id="feColorMatrix4" /></filter><linearGradient
       id="j"
       gradientTransform="matrix(1.45098,0,0,1,-26.941177,-150)"
       x1="42"
       x2="93"
       xlink:href="#f"
       y1="273"
       y2="273" /><clipPath
       id="n"><rect
         height="152"
         width="192"
         id="rect19"
         x="0"
         y="0" /></clipPath><mask
       id="l"><g
         filter="url(#d)"
         id="g18"><rect
           fill-opacity="0.1"
           height="128"
           width="128"
           id="rect18"
           x="0"
           y="0" /></g></mask><filter
       id="filter8"
       height="1"
       width="1"
       x="0"
       y="0"><feColorMatrix
         in="SourceGraphic"
         type="matrix"
         values="0 0 0 0 1 0 0 0 0 1 0 0 0 0 1 0 0 0 1 0"
         id="feColorMatrix8" /></filter><linearGradient
       id="m"
       gradientTransform="matrix(1.176471,0,0,1,-1.411765,-146)"
       x1="42"
       x2="93"
       xlink:href="#f"
       y1="273"
       y2="273" /><linearGradient
       id="r-3"
       gradientUnits="userSpaceOnUse"
       x1="46"
       x2="46"
       y1="108"
       y2="102"
       gradientTransform="matrix(0.63044807,0,0,0.60993867,-95.499007,-130.97033)"><stop
         offset="0"
         stop-color="#ed333b"
         id="stop21-6" /><stop
         offset="1"
         stop-color="#c01c28"
         id="stop22-0" /></linearGradient><clipPath
       id="q-6"><rect
         height="152"
         width="192"
         id="rect21-2"
         x="0"
         y="0" /></clipPath><mask
       id="o-6"><g
         filter="url(#d)"
         id="g20-1"
         style="filter:url(#d-7)"><rect
           fill-opacity="0.1"
           height="128"
           width="128"
           id="rect20-8"
           x="0"
           y="0" /></g></mask><filter
       id="d-7"
       height="1"
       width="1"
       x="0"
       y="0"><feColorMatrix
         in="SourceGraphic"
         type="matrix"
         values="0 0 0 0 1 0 0 0 0 1 0 0 0 0 1 0 0 0 1 0"
         id="feColorMatrix11-9" /></filter><clipPath
       id="h-7"><rect
         height="152"
         width="192"
         id="rect15-5"
         x="0"
         y="0" /></clipPath><mask
       id="e-9"><g
         filter="url(#d)"
         id="g11-2"
         style="filter:url(#d-7)"><rect
           fill-opacity="0.1"
           height="128"
           width="128"
           id="rect11-2"
           x="0"
           y="0" /></g></mask><filter
       id="filter1-8"
       height="1"
       width="1"
       x="0"
       y="0"><feColorMatrix
         in="SourceGraphic"
         type="matrix"
         values="0 0 0 0 1 0 0 0 0 1 0 0 0 0 1 0 0 0 1 0"
         id="feColorMatrix1-9" /></filter><clipPath
       id="k-1"><rect
         height="152"
         width="192"
         id="rect17-2"
         x="0"
         y="0" /></clipPath><mask
       id="i-9"><g
         filter="url(#d)"
         id="g16-3"
         style="filter:url(#d-7)"><rect
           fill-opacity="0.1"
           height="128"
           width="128"
           id="rect16-1"
           x="0"
           y="0" /></g></mask><filter
       id="filter4-9"
       height="1"
       width="1"
       x="0"
       y="0"><feColorMatrix
         in="SourceGraphic"
         type="matrix"
         values="0 0 0 0 1 0 0 0 0 1 0 0 0 0 1 0 0 0 1 0"
         id="feColorMatrix4-4" /></filter><clipPath
       id="n-0"><rect
         height="152"
         width="192"
         id="rect19-3"
         x="0"
         y="0" /></clipPath><mask
       id="l-6"><g
         filter="url(#d)"
         id="g18-1"
         style="filter:url(#d-7)"><rect
           fill-opacity="0.1"
           height="128"
           width="128"
           id="rect18-0"
           x="0"
           y="0" /></g></mask><filter
       id="filter8-6"
       height="1"
       width="1"
       x="0"
       y="0"><feColorMatrix
         in="SourceGraphic"
         type="matrix"
         values="0 0 0 0 1 0 0 0 0 1 0 0 0 0 1 0 0 0 1 0"
         id="feColorMatrix8-3" /></filter><linearGradient
       inkscape:collect="always"
       xlink:href="#f"
       id="linearGradient4"
       gradientTransform="matrix(1.45098,0,0,1,-26.941177,-150)"
       x1="50.283348"
       y1="273"
       x2="93"
       y2="273" /><linearGradient
       inkscape:collect="always"
       xlink:href="#f"
       id="linearGradient5"
       gradientTransform="matrix(1.176471,0,0,1,-1.411765,-146)"
       x1="42"
       y1="273"
       x2="93"
       y2="273" /></defs><metadata
     id="metadata4"><rdf:RDF><cc:Work
         rdf:about=""><dc:format>image/svg+xml</dc:format><dc:type
           rdf:resource="http://purl.org/dc/dcmitype/StillImage" /><dc:creator><cc:Agent><dc:title>GNOME Design Team</dc:title></cc:Agent></dc:creator><dc:source /><cc:license
           rdf:resource="http://creativecommons.org/licenses/by-sa/4.0/" /><dc:title>Adwaita Icon Template</dc:title><dc:subject><rdf:Bag /></dc:subject><dc:date /><dc:rights><cc:Agent><dc:title /></cc:Agent></dc:rights><dc:publisher><cc:Agent><dc:title /></cc:Agent></dc:publisher><dc:identifier /><dc:relation /><dc:language /><dc:coverage /><dc:description /><dc:contributor><cc:Agent><dc:title /></cc:Agent></dc:contributor></cc:Work><cc:License
         rdf:about="http://creativecommons.org/licenses/by-sa/4.0/"><cc:permits
           rdf:resource="http://creativecommons.org/ns#Reproduction" /><cc:permits
           rdf:resource="http://creativecommons.org/ns#Distribution" /><cc:requires
           rdf:resource="http://creativecommons.org/ns#Notice" /><cc:requires
           rdf:resource="http://creativecommons.org/ns#Attribution" /><cc:permits
           rdf:resource="http://creativecommons.org/ns#DerivativeWorks" /><cc:requires
           rdf:resource="http://creativecommons.org/ns#ShareAlike" /></cc:License></rdf:RDF></metadata><g
     transform="translate(0,-172)"
     style="display:inline"
     id="layer1"><g
       style="display:none"
       id="layer3"><circle
         style="display:inline;opacity:0.1;vector-effect:none;fill:none;fill-opacity:1;stroke:#000000;stroke-width:0.99000001;stroke-linecap:butt;stroke-linejoin:miter;stroke-miterlimit:4;stroke-dasharray:0.99000001, 0.99000001;stroke-dashoffset:0;stroke-opacity:1;marker:none;marker-start:none;marker-mid:none;marker-end:none;paint-order:normal;enable-background:new"
         id="circle2892"
         r="59.504131"
         cy="236"
         cx="64.000031" /><rect
         style="display:inline;opacity:0.1;vector-effect:none;fill:none;fill-opacity:1;stroke:#000000;stroke-width:0.99000001;stroke-linecap:butt;stroke-linejoin:miter;stroke-miterlimit:4;stroke-dasharray:0.99000001, 0.99000001;stroke-dashoffset:0;stroke-opacity:1;marker:none;marker-start:none;marker-mid:none;marker-end:none;paint-order:normal;enable-background:new"
         id="rect2894"
         width="87.009987"
         height="111.01005"
         x="20.495007"
         y="180.49496"
         rx="8.701004"
         ry="7.9292889" /><rect
         style="display:inline;opacity:0.1;vector-effect:none;fill:none;fill-opacity:1;stroke:#000000;stroke-width:0.99000001;stroke-linecap:butt;stroke-linejoin:miter;stroke-miterlimit:4;stroke-dasharray:0.99000001, 0.99000001;stroke-dashoffset:0;stroke-opacity:1;marker:none;marker-start:none;marker-mid:none;marker-end:none;paint-order:normal;enable-background:new"
         id="rect2896"
         width="103.00952"
         height="103.00952"
         x="12.495266"
         y="184.49524"
         rx="7.9238095"
         ry="7.9238095" /><rect
         style="display:inline;opacity:0.1;vector-effect:none;fill:none;fill-opacity:1;stroke:#000000;stroke-width:0.99000001;stroke-linecap:butt;stroke-linejoin:miter;stroke-miterlimit:4;stroke-dasharray:0.99000001, 0.99000001;stroke-dashoffset:0;stroke-opacity:1;marker:none;marker-start:none;marker-mid:none;marker-end:none;paint-order:normal;enable-background:new"
         id="rect2898"
         width="111.01004"
         height="87.010048"
         x="8.4950066"
         y="200.49496"
         rx="7.9292889"
         ry="8.701005" /><path
         style="display:inline;fill:none;stroke:#62a0ea;stroke-width:2;stroke-linecap:butt;stroke-linejoin:miter;stroke-miterlimit:4;stroke-dasharray:none;stroke-opacity:1;enable-background:new"
         d="M 2.6203015e-5,288.99999 H 128.00003"
         id="path2900" /></g><g
       style="display:inline"
       id="layer9"><g
         transform="translate(192.50002,2.5)"
         id="g1308"
         style="display:inline;enable-background:new"><g
           id="g35"
           transform="matrix(1.0681818,0,0,1.0089286,-94.40911,163.42857)"><g
             style="display:inline;enable-background:new"
             id="g2"
             transform="matrix(0.93617023,0,0,0.99115041,-91.829785,187.39823)"><g
               transform="translate(0,-172)"
               style="display:inline"
               id="layer1-5"><g
                 style="display:none"
                 id="layer3-8"><circle
                   style="display:inline;opacity:0.1;vector-effect:none;fill:none;fill-opacity:1;stroke:#000000;stroke-width:0.99;stroke-linecap:butt;stroke-linejoin:miter;stroke-miterlimit:4;stroke-dasharray:0.99, 0.99;stroke-dashoffset:0;stroke-opacity:1;marker:none;marker-start:none;marker-mid:none;marker-end:none;paint-order:normal;enable-background:new"
                   id="circle2892-7"
                   r="59.504131"
                   cy="236"
                   cx="64.000031" /><rect
                   style="display:inline;opacity:0.1;vector-effect:none;fill:none;fill-opacity:1;stroke:#000000;stroke-width:0.99;stroke-linecap:butt;stroke-linejoin:miter;stroke-miterlimit:4;stroke-dasharray:0.99, 0.99;stroke-dashoffset:0;stroke-opacity:1;marker:none;marker-start:none;marker-mid:none;marker-end:none;paint-order:normal;enable-background:new"
                   id="rect2894-0"
                   width="87.009987"
                   height="111.01005"
                   x="20.495007"
                   y="180.49496"
                   rx="8.701004"
                   ry="7.9292889" /><rect
                   style="display:inline;opacity:0.1;vector-effect:none;fill:none;fill-opacity:1;stroke:#000000;stroke-width:0.99;stroke-linecap:butt;stroke-linejoin:miter;stroke-miterlimit:4;stroke-dasharray:0.99, 0.99;stroke-dashoffset:0;stroke-opacity:1;marker:none;marker-start:none;marker-mid:none;marker-end:none;paint-order:normal;enable-background:new"
                   id="rect2896-4"
                   width="103.00952"
                   height="103.00952"
                   x="12.495266"
                   y="184.49524"
                   rx="7.9238095"
                   ry="7.9238095" /><rect
                   style="display:inline;opacity:0.1;vector-effect:none;fill:none;fill-opacity:1;stroke:#000000;stroke-width:0.99;stroke-linecap:butt;stroke-linejoin:miter;stroke-miterlimit:4;stroke-dasharray:0.99, 0.99;stroke-dashoffset:0;stroke-opacity:1;marker:none;marker-start:none;marker-mid:none;marker-end:none;paint-order:normal;enable-background:new"
                   id="rect2898-8"
                   width="111.01004"
                   height="87.010048"
                   x="8.4950066"
                   y="200.49496"
                   rx="7.9292889"
                   ry="8.701005" /><path
                   style="display:inline;fill:none;stroke:#62a0ea;stroke-width:2;stroke-linecap:butt;stroke-linejoin:miter;stroke-miterlimit:4;stroke-dasharray:none;stroke-opacity:1;enable-background:new"
                   d="M 2.6203015e-5,288.99999 H 128.00003"
                   id="path2900-0" /></g><g
                 style="display:inline"
                 id="layer9-4"><g
                   transform="translate(192.50002,2.5)"
                   id="g1308-2"
                   style="display:inline;enable-background:new"><g
                     id="g35-2"
                     transform="matrix(1.0681818,0,0,1.0089286,-94.40911,163.42857)"><g
                       id="g1"
                       transform="matrix(0.99999995,0,0,1.166667,-171.83395,-309.56528)"><g
                         id="g3"
                         transform="matrix(0.79124571,0,0,0.88072613,4.6918411,20.835057)"
                         style="fill:#d03932;fill-opacity:1" /></g><g
                       clip-path="url(#q-6)"
                       mask="url(#o-6)"
                       transform="translate(-106.25987,-189.74778)"
                       id="g34-9" /><g
                       id="g8"
                       transform="translate(0.46809555)"><g
                         id="g7"><g
                           id="g6"><g
                             id="g5"><g
                               id="g15"
                               transform="matrix(1.0101497,0,0,1,0.74200461,-181.38052)"><g
                                 style="display:inline;enable-background:new"
                                 id="g1002-9"
                                 transform="matrix(0.23404256,0,0,0.2477876,-88.085109,-100.0354)"><path
                                   id="rect954-3-6"
                                   d="m 64,540 v 368 h 320 c 17.728,0 32,-14.272 32,-32 V 572 c 0,-17.728 -14.272,-32 -32,-32 z"
                                   style="display:inline;opacity:1;fill:#8b3a39;fill-opacity:1;stroke:none;stroke-width:24;stroke-linecap:butt;stroke-linejoin:miter;stroke-miterlimit:4;stroke-dasharray:none;stroke-dashoffset:0;stroke-opacity:1;marker:none;marker-start:none;marker-mid:none;marker-end:none;paint-order:normal;enable-background:new" /><path
                                   id="rect954-3-6-1-1"
                                   d="m 72,620 v 280 h 312 c 17.728,0 32,-14.272 32,-32 V 652 c 0,-17.728 -14.272,-32 -32,-32 z"
                                   style="display:inline;opacity:1;fill:url(#linearGradient15);fill-opacity:1;stroke:none;stroke-width:24;stroke-linecap:butt;stroke-linejoin:miter;stroke-miterlimit:4;stroke-dasharray:none;stroke-dashoffset:0;stroke-opacity:1;marker:none;marker-start:none;marker-mid:none;marker-end:none;paint-order:normal;enable-background:new" /><path
                                   id="rect954-3-2-0"
                                   d="M 64,529.23077 V 844 h 320 c 17.728,0 32,-12.35077 32,-27.69231 V 556.92308 c 0,-15.34154 -14.272,-27.69231 -32,-27.69231 z"
                                   style="display:inline;opacity:1;fill:#8b3a39;fill-opacity:1;stroke:none;stroke-width:22.3263;stroke-linecap:butt;stroke-linejoin:miter;stroke-miterlimit:4;stroke-dasharray:none;stroke-dashoffset:0;stroke-opacity:1;marker:none;marker-start:none;marker-mid:none;marker-end:none;paint-order:normal;enable-background:new"
                                   sodipodi:nodetypes="ccssssc" /><path
                                   id="rect954-3-2-9-0-3-4"
                                   d="m 64,460 v 377.07692 h 320 c 17.728,0 32,-12.35077 32,-27.6923 V 487.69231 C 416,472.35077 401.728,460 384,460 Z"
                                   style="display:inline;opacity:1;fill:#a34e4b;fill-opacity:1;stroke:none;stroke-width:22.3263;stroke-linecap:butt;stroke-linejoin:miter;stroke-miterlimit:4;stroke-dasharray:none;stroke-dashoffset:0;stroke-opacity:1;marker:none;marker-start:none;marker-mid:none;marker-end:none;paint-order:normal;enable-background:new"
                                   sodipodi:nodetypes="ccssssc" /><path
                                   style="display:inline;opacity:0.187;fill:#ffffff;fill-opacity:1;stroke:none;stroke-width:22.8265;stroke-linecap:butt;stroke-linejoin:miter;stroke-miterlimit:4;stroke-dasharray:none;stroke-dashoffset:0;stroke-opacity:1;marker:none;marker-start:none;marker-mid:none;marker-end:none;paint-order:normal;enable-background:new"
                                   d="m 74.535535,460.00003 h 8 v 377.07689 h -8 z"
                                   id="rect1366-2-2"
                                   sodipodi:nodetypes="ccccc" /><path
                                   style="display:inline;opacity:0.57995;fill:#753633;fill-opacity:1;stroke:none;stroke-width:22.8265;stroke-linecap:butt;stroke-linejoin:miter;stroke-miterlimit:4;stroke-dasharray:none;stroke-dashoffset:0;stroke-opacity:1;marker:none;marker-start:none;marker-mid:none;marker-end:none;paint-order:normal;enable-background:new"
                                   d="m 79.707107,460.00003 h 8 v 377.07689 h -8 z"
                                   id="path15-2"
                                   sodipodi:nodetypes="ccccc" /></g><path
                                 style="font-size:51.3743px;font-family:'RIT Rachana';-inkscape-font-specification:'RIT Rachana';fill:#2e1414;fill-opacity:0.376471;stroke-width:0.328474"
                                 d="M -27.037286,77.369604 V 75.56282 h -0.780142 c -0.975177,0 -1.633422,-0.154867 -1.999113,-0.464602 -0.341312,-0.309734 -0.731384,-1.08407 -1.218972,-2.323008 L -41.396771,45.699253 h -1.682181 l -9.361702,25.269172 c -0.731383,1.961652 -1.340869,3.20059 -1.828457,3.742626 -0.487589,0.567846 -1.218972,0.851769 -2.242908,0.851769 h -0.560727 v 1.806784 h 10.775709 V 75.56282 h -0.828901 c -2.194149,0 -3.291223,-0.851769 -3.291223,-2.55531 0,-0.464601 0.121897,-1.08407 0.39007,-1.884217 l 1.340869,-3.923303 h 10.75133 l 2.218528,5.962388 c 0.195036,0.619469 0.316933,1.032448 0.316933,1.213127 0,0.361357 -0.243795,0.64528 -0.707004,0.85177 -0.463209,0.20649 -1.072695,0.335545 -1.828457,0.335545 h -1.70656 v 1.806784 z M -38.788173,65.109281 H -47.8817 l 4.510194,-12.363568 z m 35.593971,9.730825 c -0.511968,0.180679 -0.8045212,0.283924 -0.8532801,0.283924 -0.6582447,0 -1.0970744,-0.258112 -1.3652482,-0.800148 -0.2681738,-0.516224 -0.3900709,-1.393805 -0.3900709,-2.632743 v -9.937315 c 0,-3.071534 -0.7070035,-5.162241 -2.0966308,-6.246312 -1.4140081,-1.109881 -3.388742,-1.651918 -5.948582,-1.651918 -2.559841,0 -4.680851,0.593659 -6.314273,1.780974 -1.633422,1.161505 -2.462323,2.632744 -2.462323,4.413717 0,0.929203 0.219415,1.677728 0.682624,2.219763 0.43883,0.542035 0.999558,0.82596 1.706561,0.82596 0.682624,0 1.243351,-0.232301 1.657801,-0.748525 0.414451,-0.464602 0.633866,-1.006638 0.633866,-1.548673 0,-0.567847 -0.146277,-1.213127 -0.46321,-1.935841 -0.316933,-0.722714 -0.463209,-1.109881 -0.463209,-1.135693 0,-0.542036 0.414451,-1.006637 1.218971,-1.393805 0.828902,-0.387168 1.950355,-0.593658 3.339983,-0.593658 1.389628,0 2.511082,0.412979 3.339982,1.238938 0.828901,0.800148 1.2433509,2.271386 1.2433509,4.387905 v 1.987464 c -5.1928189,0.955014 -8.8497339,2.116518 -10.8976059,3.484512 -2.096631,1.342183 -3.120568,3.20059 -3.120568,5.601032 0,1.729351 0.585107,3.097345 1.75532,4.129793 1.194592,1.032448 2.754875,1.548673 4.72961,1.548673 3.169326,0 5.753545,-1.213126 7.7526589,-3.613569 0.365691,1.161504 0.8289005,1.987463 1.4383868,2.452065 0.6094858,0.516224 1.414007,0.748525 2.4135636,0.748525 0.9995568,0 1.9259752,-0.283923 2.7792553,-0.82596 0.8532801,-0.542035 1.2677305,-1.08407 1.2677305,-1.574483 0,-0.490413 -0.1462766,-0.748525 -0.390071,-0.748525 -0.2925532,0 -0.6826241,0.103245 -1.1945921,0.283923 z m -6.5336881,-7.27876 c 0,1.522861 -0.04876,2.581121 -0.170656,3.148967 -0.1218979,0.61947 -0.4144509,1.316371 -0.8776599,2.11652 -0.487588,0.800147 -1.218971,1.497049 -2.194149,2.064896 -0.950798,0.593658 -1.950354,0.877581 -2.97429,0.877581 -0.999557,0 -1.852837,-0.361357 -2.559841,-1.135693 -0.707003,-0.722714 -1.048315,-1.70354 -1.048315,-2.890856 0,-1.187315 0.268174,-2.168141 0.804521,-2.916666 1.048316,-1.471239 4.046986,-2.658554 9.0203899,-3.587758 z"
                                 id="path1-0"
                                 aria-label="Aa" /><path
                                 style="font-size:51.3743px;font-family:'RIT Rachana';-inkscape-font-specification:'RIT Rachana';fill:#f4e3d7;fill-opacity:1;stroke-width:0.328474"
                                 d="m -27.916668,75.036878 v -1.806784 h -0.780142 c -0.975177,0 -1.633422,-0.154867 -1.999113,-0.464602 -0.341312,-0.309734 -0.731384,-1.08407 -1.218972,-2.323008 L -42.276153,43.366527 h -1.682181 l -9.361702,25.269172 c -0.731383,1.961652 -1.340869,3.20059 -1.828457,3.742626 -0.487589,0.567846 -1.218972,0.851769 -2.242908,0.851769 h -0.560727 v 1.806784 h 10.775709 v -1.806784 h -0.828901 c -2.194149,0 -3.291223,-0.851769 -3.291223,-2.55531 0,-0.464601 0.121897,-1.08407 0.39007,-1.884217 l 1.340869,-3.923303 h 10.75133 l 2.218528,5.962388 c 0.195036,0.619469 0.316933,1.032448 0.316933,1.213127 0,0.361357 -0.243795,0.64528 -0.707004,0.85177 -0.463209,0.20649 -1.072695,0.335545 -1.828457,0.335545 h -1.70656 v 1.806784 z M -39.667555,62.776555 h -9.093527 l 4.510194,-12.363568 z m 35.5939711,9.730825 c -0.511968,0.180679 -0.8045212,0.283924 -0.8532801,0.283924 -0.6582447,0 -1.0970744,-0.258112 -1.3652482,-0.800148 -0.2681738,-0.516224 -0.3900709,-1.393805 -0.3900709,-2.632743 v -9.937315 c 0,-3.071534 -0.7070035,-5.162241 -2.0966308,-6.246312 -1.4140081,-1.109881 -3.3887421,-1.651918 -5.9485821,-1.651918 -2.559841,0 -4.680851,0.593659 -6.314273,1.780974 -1.633422,1.161505 -2.462323,2.632744 -2.462323,4.413717 0,0.929203 0.219415,1.677728 0.682624,2.219763 0.43883,0.542035 0.999558,0.82596 1.706561,0.82596 0.682624,0 1.243351,-0.232301 1.657801,-0.748525 0.414451,-0.464602 0.633866,-1.006638 0.633866,-1.548673 0,-0.567847 -0.146277,-1.213127 -0.46321,-1.935841 -0.316933,-0.722714 -0.463209,-1.109881 -0.463209,-1.135693 0,-0.542036 0.414451,-1.006637 1.218971,-1.393805 0.828902,-0.387168 1.950355,-0.593658 3.339983,-0.593658 1.389628,0 2.511082,0.412979 3.339982,1.238938 0.828901,0.800148 1.243351,2.271386 1.243351,4.387905 v 1.987464 c -5.192819,0.955014 -8.849734,2.116518 -10.897606,3.484512 -2.096631,1.342183 -3.120568,3.20059 -3.120568,5.601032 0,1.729351 0.585107,3.097345 1.75532,4.129793 1.194592,1.032448 2.754875,1.548673 4.72961,1.548673 3.169326,0 5.753545,-1.213126 7.752659,-3.613569 0.365691,1.161504 0.8289005,1.987463 1.4383868,2.452065 0.6094858,0.516224 1.414007,0.748525 2.4135636,0.748525 0.9995568,0 1.9259752,-0.283923 2.7792553,-0.82596 0.8532801,-0.542035 1.2677305,-1.08407 1.2677305,-1.574483 0,-0.490413 -0.1462766,-0.748525 -0.390071,-0.748525 -0.2925532,0 -0.6826241,0.103245 -1.1945921,0.283923 z m -6.5336881,-7.27876 c 0,1.522861 -0.04876,2.581121 -0.170656,3.148967 -0.121898,0.61947 -0.414451,1.316371 -0.87766,2.11652 -0.487588,0.800147 -1.218971,1.497049 -2.194149,2.064896 -0.950798,0.593658 -1.950354,0.877581 -2.97429,0.877581 -0.999557,0 -1.852837,-0.361357 -2.559841,-1.135693 -0.707003,-0.722714 -1.048315,-1.70354 -1.048315,-2.890856 0,-1.187315 0.268174,-2.168141 0.804521,-2.916666 1.048316,-1.471239 4.046986,-2.658554 9.02039,-3.587758 z"
                                 id="path14-5"
                                 aria-label="Aa" /><g
                                 id="g18-5"
                                 transform="matrix(0.9384831,0,0,0.91374031,166.20679,-262.71953)"><g
                                   id="g35-3-2"
                                   transform="matrix(1.0681818,0,0,1.0089286,-84.363635,-0.5714304)"><path
                                   d="m -159.74468,321.09863 h 82.179954 v 62.75118 h -82.179954 z"
                                   fill="#62a0ea"
                                   id="path27-9"
                                   style="opacity:0.12;fill:#ececec;fill-opacity:1;stroke-width:1.01289"
                                   sodipodi:nodetypes="ccccc" /></g></g><g
                                 clip-path="url(#n)"
                                 mask="url(#l)"
                                 transform="translate(-93.063832,-3.411516)"
                                 id="g33"><path
                                   d="m 48,126 h 60 v 2 H 48 Z m 0,0"
                                   fill="url(#m)"
                                   id="path33"
                                   style="fill:url(#m)" /></g></g><g
                               clip-path="url(#k-1)"
                               mask="url(#i-9)"
                               transform="matrix(1.0101497,0,0,1,-106.59637,-189.74778)"
                               id="g32-7"><path
                                 d="m 34,122 h 74 v 2 H 34 Z m 0,0"
                                 fill="url(#j)"
                                 id="path32-6"
                                 style="fill:url(#linearGradient4)" /></g><g
                               clip-path="url(#n-0)"
                               mask="url(#l-6)"
                               transform="matrix(1.0101497,0,0,1,-106.59637,-189.74778)"
                               id="g33-5"><path
                                 d="m 48,126 h 60 v 2 H 48 Z m 0,0"
                                 fill="url(#m)"
                                 id="path33-6"
                                 style="fill:url(#linearGradient5)" /></g><path
                               d="m -67.759296,-68.756611 h 7.565374 v 7.92921 l -3.782686,-3.0497 -3.782688,3.0497 z m 0,0"
                               fill="url(#r)"
                               id="path35-7"
                               style="fill:url(#r-3);stroke-width:0.620108" /></g></g></g></g></g></g></g></g></g></g></g></g></g></svg>
