<?xml version="1.0" encoding="UTF-8" standalone="no"?>
<svg
   viewBox="0 0 128 128"
   style="display:inline;enable-background:new"
   version="1.0"
   id="svg11300"
   height="128"
   width="128"
   sodipodi:docname="io.github.fastrizwaan.diction.svg"
   inkscape:version="1.4.3 (0d15f75042, 2025-12-25)"
   xml:space="preserve"
   xmlns:inkscape="http://www.inkscape.org/namespaces/inkscape"
   xmlns:sodipodi="http://sodipodi.sourceforge.net/DTD/sodipodi-0.dtd"
   xmlns:xlink="http://www.w3.org/1999/xlink"
   xmlns="http://www.w3.org/2000/svg"
   xmlns:svg="http://www.w3.org/2000/svg"
   xmlns:rdf="http://www.w3.org/1999/02/22-rdf-syntax-ns#"
   xmlns:cc="http://creativecommons.org/ns#"
   xmlns:dc="http://purl.org/dc/elements/1.1/"><sodipodi:namedview
     id="namedview1"
     pagecolor="#ffffff"
     bordercolor="#000000"
     borderopacity="0.25"
     inkscape:showpageshadow="2"
     inkscape:pageopacity="0.0"
     inkscape:pagecheckerboard="0"
     inkscape:deskcolor="#d1d1d1"
     inkscape:zoom="1"
     inkscape:cx="42"
     inkscape:cy="78"
     inkscape:window-width="2560"
     inkscape:window-height="1371"
     inkscape:window-x="0"
     inkscape:window-y="0"
     inkscape:window-maximized="1"
     inkscape:current-layer="g6" /><title
     id="title4162">Adwaita Icon Template</title><defs
     id="defs3"><linearGradient
       id="linearGradient20"
       inkscape:collect="always"><stop
         style="stop-color:#fbf8f4;stop-opacity:1"
         offset="0"
         id="stop18" /><stop
         style="stop-color:#fcfbf8;stop-opacity:1"
         offset="0.23588696"
         id="stop19" /><stop
         style="stop-color:#f3eee5;stop-opacity:1"
         offset="1"
         id="stop20" /></linearGradient><linearGradient
       id="linearGradient1458"><stop
         id="stop1452"
         offset="0"
         style="stop-color:#deddda;stop-opacity:1" /><stop
         style="stop-color:#ffffff;stop-opacity:1"
         offset="0.51104856"
         id="stop1454" /><stop
         id="stop1456"
         offset="1"
         style="stop-color:#c0bfbc;stop-opacity:1" /></linearGradient><linearGradient
       gradientTransform="translate(0,640)"
       gradientUnits="userSpaceOnUse"
       y2="120"
       x2="416"
       y1="120"
       x1="384"
       id="linearGradient1053-2"
       xlink:href="#linearGradient40" /><linearGradient
       id="b"
       gradientUnits="userSpaceOnUse"
       x1="20"
       x2="108"
       y1="54"
       y2="54"
       gradientTransform="translate(0,-1.9823008)"
       xlink:href="#linearGradient33"><stop
         offset="0"
         stop-color="#3584e4"
         id="stop4"
         style="stop-color:#cf0339;stop-opacity:1;" /><stop
         offset="0.0227273"
         stop-color="#62a0ea"
         id="stop5"
         style="stop-color:#cf0a3f;stop-opacity:1;" /><stop
         offset="0.0909091"
         stop-color="#3584e4"
         id="stop6"
         style="stop-color:#a34b49;stop-opacity:1" /><stop
         offset="1"
         stop-color="#3584e4"
         id="stop7"
         style="stop-color:#a34e4b;stop-opacity:1" /></linearGradient><linearGradient
       id="linearGradient33"
       gradientUnits="userSpaceOnUse"
       x1="20"
       x2="108"
       y1="54"
       y2="54"
       gradientTransform="translate(0,-1.9823008)"><stop
         offset="0"
         stop-color="#3584e4"
         id="stop30"
         style="stop-color:#b40000;stop-opacity:1" /><stop
         offset="0.56746006"
         stop-color="#62a0ea"
         id="stop31"
         style="stop-color:#aa0000;stop-opacity:1;" /></linearGradient><linearGradient
       id="c"
       gradientUnits="userSpaceOnUse"
       x1="20"
       x2="108.09962"
       y1="49"
       y2="49"
       gradientTransform="matrix(1,0,0,1.5862069,0,-32.051266)"><stop
         offset="0"
         stop-color="#62a0ea"
         id="stop8"
         style="stop-color:#ad5f5b;stop-opacity:1" /><stop
         offset="0.01514272"
         stop-color="#8bb9f0"
         id="stop9"
         style="stop-color:#b66262;stop-opacity:1" /><stop
         offset="0.08896804"
         stop-color="#62a0ea"
         id="stop10"
         style="stop-color:#a34b49;stop-opacity:1" /><stop
         offset="1"
         stop-color="#62a0ea"
         id="stop11"
         style="stop-color:#9e4b49;stop-opacity:1" /></linearGradient><linearGradient
       id="linearGradient40"
       inkscape:collect="always"><stop
         style="stop-color:#ede4d7;stop-opacity:1;"
         offset="0"
         id="stop39" /><stop
         style="stop-color:#fcfbf9;stop-opacity:1;"
         offset="0.84838867"
         id="stop23" /><stop
         style="stop-color:#ede4d7;stop-opacity:1;"
         offset="1"
         id="stop40" /></linearGradient><linearGradient
       inkscape:collect="always"
       xlink:href="#linearGradient20"
       id="linearGradient15"
       gradientUnits="userSpaceOnUse"
       gradientTransform="matrix(0.25253743,0,0,0.25,4.3376118,41.999993)"
       x1="380.85001"
       y1="120"
       x2="416"
       y2="120" /><clipPath
       id="f-30-4"><rect
         height="152"
         width="192"
         id="rect6-30-0"
         x="0"
         y="0" /></clipPath><mask
       id="e-9-0"><g
         filter="url(#b)"
         id="g5-2-4"
         style="filter:url(#b-4-2)"><rect
           fill-opacity="0.1"
           height="128"
           width="128"
           id="rect5-5-6"
           x="0"
           y="0" /></g></mask><filter
       id="b-4-2"
       height="1"
       width="1"
       x="0"
       y="0"><feColorMatrix
         in="SourceGraphic"
         type="matrix"
         values="0 0 0 0 1 0 0 0 0 1 0 0 0 0 1 0 0 0 1 0"
         id="feColorMatrix3-0-6" /></filter><linearGradient
       id="r"
       gradientUnits="userSpaceOnUse"
       x1="46"
       x2="46"
       y1="108"
       y2="102"
       gradientTransform="translate(-99.063832,8.088484)"><stop
         offset="0"
         stop-color="#ed333b"
         id="stop21" /><stop
         offset="1"
         stop-color="#c01c28"
         id="stop22" /></linearGradient><clipPath
       id="q"><rect
         height="152"
         width="192"
         id="rect21"
         x="0"
         y="0" /></clipPath><mask
       id="o"><g
         filter="url(#d)"
         id="g20"><rect
           fill-opacity="0.1"
           height="128"
           width="128"
           id="rect20"
           x="0"
           y="0" /></g></mask><filter
       id="d"
       height="1"
       width="1"
       x="0"
       y="0"><feColorMatrix
         in="SourceGraphic"
         type="matrix"
         values="0 0 0 0 1 0 0 0 0 1 0 0 0 0 1 0 0 0 1 0"
         id="feColorMatrix11" /></filter><linearGradient
       id="p"
       gradientTransform="matrix(0.745098,0,0,1,18.705883,-158)"
       x1="42"
       x2="93"
       xlink:href="#f"
       y1="273"
       y2="273" /><linearGradient
       id="f"
       gradientUnits="userSpaceOnUse"><stop
         offset="0"
         stop-opacity="0"
         id="stop12" /><stop
         offset="0.2"
         id="stop13" /><stop
         offset="0.8"
         stop-opacity="0.94902"
         id="stop14-3" /><stop
         offset="1"
         stop-opacity="0"
         id="stop15-6" /></linearGradient><clipPath
       id="h"><rect
         height="152"
         width="192"
         id="rect15"
         x="0"
         y="0" /></clipPath><mask
       id="e"><g
         filter="url(#d)"
         id="g11"><rect
           fill-opacity="0.1"
           height="128"
           width="128"
           id="rect11"
           x="0"
           y="0" /></g></mask><filter
       id="filter1"
       height="1"
       width="1"
       x="0"
       y="0"><feColorMatrix
         in="SourceGraphic"
         type="matrix"
         values="0 0 0 0 1 0 0 0 0 1 0 0 0 0 1 0 0 0 1 0"
         id="feColorMatrix1" /></filter><linearGradient
       id="g"
       gradientTransform="matrix(1.372549,0,0,1,-19.647058,-154)"
       x1="42"
       x2="93"
       xlink:href="#f"
       y1="273"
       y2="273" /><clipPath
       id="k"><rect
         height="152"
         width="192"
         id="rect17"
         x="0"
         y="0" /></clipPath><mask
       id="i"><g
         filter="url(#d)"
         id="g16"><rect
           fill-opacity="0.1"
           height="128"
           width="128"
           id="rect16"
           x="0"
           y="0" /></g></mask><filter
       id="filter4"
       height="1"
       width="1"
       x="0"
       y="0"><feColorMatrix
         in="SourceGraphic"
         type="matrix"
         values="0 0 0 0 1 0 0 0 0 1 0 0 0 0 1 0 0 0 1 0"
         id="feColorMatrix4" /></filter><linearGradient
       id="j"
       gradientTransform="matrix(1.45098,0,0,1,-26.941177,-150)"
       x1="42"
       x2="93"
       xlink:href="#f"
       y1="273"
       y2="273" /><clipPath
       id="n"><rect
         height="152"
         width="192"
         id="rect19"
         x="0"
         y="0" /></clipPath><mask
       id="l"><g
         filter="url(#d)"
         id="g18"><rect
           fill-opacity="0.1"
           height="128"
           width="128"
           id="rect18"
           x="0"
           y="0" /></g></mask><filter
       id="filter8"
       height="1"
       width="1"
       x="0"
       y="0"><feColorMatrix
         in="SourceGraphic"
         type="matrix"
         values="0 0 0 0 1 0 0 0 0 1 0 0 0 0 1 0 0 0 1 0"
         id="feColorMatrix8" /></filter><linearGradient
       id="m"
       gradientTransform="matrix(1.176471,0,0,1,-1.411765,-146)"
       x1="42"
       x2="93"
       xlink:href="#f"
       y1="273"
       y2="273" /><linearGradient
       id="r-3"
       gradientUnits="userSpaceOnUse"
       x1="46"
       x2="46"
       y1="108"
       y2="102"
       gradientTransform="matrix(0.63044807,0,0,0.60993867,-98.06415,-110.7093)"><stop
         offset="0"
         stop-color="#ed333b"
         id="stop21-6" /><stop
         offset="1"
         stop-color="#c01c28"
         id="stop22-0" /></linearGradient><filter
       id="d-7"
       height="1"
       width="1"
       x="0"
       y="0"><feColorMatrix
         in="SourceGraphic"
         type="matrix"
         values="0 0 0 0 1 0 0 0 0 1 0 0 0 0 1 0 0 0 1 0"
         id="feColorMatrix11-9" /></filter><clipPath
       id="h-7"><rect
         height="152"
         width="192"
         id="rect15-5"
         x="0"
         y="0" /></clipPath><mask
       id="e-9"><g
         filter="url(#d)"
         id="g11-2"
         style="filter:url(#d-7)"><rect
           fill-opacity="0.1"
           height="128"
           width="128"
           id="rect11-2"
           x="0"
           y="0" /></g></mask><filter
       id="filter1-8"
       height="1"
       width="1"
       x="0"
       y="0"><feColorMatrix
         in="SourceGraphic"
         type="matrix"
         values="0 0 0 0 1 0 0 0 0 1 0 0 0 0 1 0 0 0 1 0"
         id="feColorMatrix1-9" /></filter><clipPath
       id="k-1"><rect
         height="152"
         width="192"
         id="rect17-2"
         x="0"
         y="0" /></clipPath><mask
       id="i-9"><g
         filter="url(#d)"
         id="g16-3"
         style="filter:url(#d-7)"><rect
           fill-opacity="0.1"
           height="128"
           width="128"
           id="rect16-1"
           x="0"
           y="0" /></g></mask><filter
       id="filter4-9"
       height="1"
       width="1"
       x="0"
       y="0"><feColorMatrix
         in="SourceGraphic"
         type="matrix"
         values="0 0 0 0 1 0 0 0 0 1 0 0 0 0 1 0 0 0 1 0"
         id="feColorMatrix4-4" /></filter><clipPath
       id="n-0"><rect
         height="152"
         width="192"
         id="rect19-3"
         x="0"
         y="0" /></clipPath><mask
       id="l-6"><g
         filter="url(#d)"
         id="g18-1"
         style="filter:url(#d-7)"><rect
           fill-opacity="0.1"
           height="128"
           width="128"
           id="rect18-0"
           x="0"
           y="0" /></g></mask><filter
       id="filter8-6"
       height="1"
       width="1"
       x="0"
       y="0"><feColorMatrix
         in="SourceGraphic"
         type="matrix"
         values="0 0 0 0 1 0 0 0 0 1 0 0 0 0 1 0 0 0 1 0"
         id="feColorMatrix8-3" /></filter><clipPath
       id="f-30-4-1"><rect
         height="152"
         width="192"
         id="rect6-30-0-9"
         x="0"
         y="0" /></clipPath><mask
       id="e-9-0-6"><g
         filter="url(#b)"
         id="g5-2-4-2"
         style="filter:url(#b-4-2-2)"><rect
           fill-opacity="0.1"
           height="128"
           width="128"
           id="rect5-5-6-1"
           x="0"
           y="0" /></g></mask><filter
       id="b-4-2-2"
       height="1"
       width="1"
       x="0"
       y="0"><feColorMatrix
         in="SourceGraphic"
         type="matrix"
         values="0 0 0 0 1 0 0 0 0 1 0 0 0 0 1 0 0 0 1 0"
         id="feColorMatrix3-0-6-0" /></filter><clipPath
       id="f-30-4-5"><rect
         height="152"
         width="192"
         id="rect6-30-0-6"
         x="0"
         y="0" /></clipPath><mask
       id="e-9-0-5"><g
         filter="url(#b)"
         id="g5-2-4-4"
         style="filter:url(#b-4-2-21)"><rect
           fill-opacity="0.1"
           height="128"
           width="128"
           id="rect5-5-6-2"
           x="0"
           y="0" /></g></mask><filter
       id="b-4-2-21"
       height="1"
       width="1"
       x="0"
       y="0"><feColorMatrix
         in="SourceGraphic"
         type="matrix"
         values="0 0 0 0 1 0 0 0 0 1 0 0 0 0 1 0 0 0 1 0"
         id="feColorMatrix3-0-6-7" /></filter><clipPath
       id="q-1"><rect
         height="152"
         width="192"
         id="rect21-6"
         x="0"
         y="0" /></clipPath><mask
       id="o-5"><g
         filter="url(#d)"
         id="g20-7"
         style="filter:url(#d-9)"><rect
           fill-opacity="0.1"
           height="128"
           width="128"
           id="rect20-85"
           x="0"
           y="0" /></g></mask><filter
       id="d-9"
       height="1"
       width="1"
       x="0"
       y="0"><feColorMatrix
         in="SourceGraphic"
         type="matrix"
         values="0 0 0 0 1 0 0 0 0 1 0 0 0 0 1 0 0 0 1 0"
         id="feColorMatrix11-2" /></filter><clipPath
       id="h-79"><rect
         height="152"
         width="192"
         id="rect15-7"
         x="0"
         y="0" /></clipPath><mask
       id="e-2"><g
         filter="url(#d)"
         id="g11-21"
         style="filter:url(#d-9)"><rect
           fill-opacity="0.1"
           height="128"
           width="128"
           id="rect11-6"
           x="0"
           y="0" /></g></mask><filter
       id="filter1-3"
       height="1"
       width="1"
       x="0"
       y="0"><feColorMatrix
         in="SourceGraphic"
         type="matrix"
         values="0 0 0 0 1 0 0 0 0 1 0 0 0 0 1 0 0 0 1 0"
         id="feColorMatrix1-0" /></filter><clipPath
       id="k-2"><rect
         height="152"
         width="192"
         id="rect17-1"
         x="0"
         y="0" /></clipPath><mask
       id="i-5"><g
         filter="url(#d)"
         id="g16-6"
         style="filter:url(#d-9)"><rect
           fill-opacity="0.1"
           height="128"
           width="128"
           id="rect16-5"
           x="0"
           y="0" /></g></mask><filter
       id="filter4-0"
       height="1"
       width="1"
       x="0"
       y="0"><feColorMatrix
         in="SourceGraphic"
         type="matrix"
         values="0 0 0 0 1 0 0 0 0 1 0 0 0 0 1 0 0 0 1 0"
         id="feColorMatrix4-0" /></filter><clipPath
       id="n-3"><rect
         height="152"
         width="192"
         id="rect19-4"
         x="0"
         y="0" /></clipPath><mask
       id="l-66"><g
         filter="url(#d)"
         id="g18-0"
         style="filter:url(#d-9)"><rect
           fill-opacity="0.1"
           height="128"
           width="128"
           id="rect18-2"
           x="0"
           y="0" /></g></mask><filter
       id="filter8-5"
       height="1"
       width="1"
       x="0"
       y="0"><feColorMatrix
         in="SourceGraphic"
         type="matrix"
         values="0 0 0 0 1 0 0 0 0 1 0 0 0 0 1 0 0 0 1 0"
         id="feColorMatrix8-8" /></filter><clipPath
       id="q-6-0"><rect
         height="152"
         width="192"
         id="rect21-2-6"
         x="0"
         y="0" /></clipPath><mask
       id="o-6-0"><g
         filter="url(#d)"
         id="g20-1-8"
         style="filter:url(#d-7-7)"><rect
           fill-opacity="0.1"
           height="128"
           width="128"
           id="rect20-8-3"
           x="0"
           y="0" /></g></mask><filter
       id="d-7-7"
       height="1"
       width="1"
       x="0"
       y="0"><feColorMatrix
         in="SourceGraphic"
         type="matrix"
         values="0 0 0 0 1 0 0 0 0 1 0 0 0 0 1 0 0 0 1 0"
         id="feColorMatrix11-9-8" /></filter><clipPath
       id="h-7-2"><rect
         height="152"
         width="192"
         id="rect15-5-1"
         x="0"
         y="0" /></clipPath><mask
       id="e-9-05"><g
         filter="url(#d)"
         id="g11-2-8"
         style="filter:url(#d-7-7)"><rect
           fill-opacity="0.1"
           height="128"
           width="128"
           id="rect11-2-5"
           x="0"
           y="0" /></g></mask><filter
       id="filter1-8-5"
       height="1"
       width="1"
       x="0"
       y="0"><feColorMatrix
         in="SourceGraphic"
         type="matrix"
         values="0 0 0 0 1 0 0 0 0 1 0 0 0 0 1 0 0 0 1 0"
         id="feColorMatrix1-9-0" /></filter><clipPath
       id="k-1-7"><rect
         height="152"
         width="192"
         id="rect17-2-3"
         x="0"
         y="0" /></clipPath><mask
       id="i-9-8"><g
         filter="url(#d)"
         id="g16-3-2"
         style="filter:url(#d-7-7)"><rect
           fill-opacity="0.1"
           height="128"
           width="128"
           id="rect16-1-3"
           x="0"
           y="0" /></g></mask><filter
       id="filter4-9-0"
       height="1"
       width="1"
       x="0"
       y="0"><feColorMatrix
         in="SourceGraphic"
         type="matrix"
         values="0 0 0 0 1 0 0 0 0 1 0 0 0 0 1 0 0 0 1 0"
         id="feColorMatrix4-4-7" /></filter><clipPath
       id="n-0-7"><rect
         height="152"
         width="192"
         id="rect19-3-7"
         x="0"
         y="0" /></clipPath><mask
       id="l-6-6"><g
         filter="url(#d)"
         id="g18-1-9"
         style="filter:url(#d-7-7)"><rect
           fill-opacity="0.1"
           height="128"
           width="128"
           id="rect18-0-1"
           x="0"
           y="0" /></g></mask><filter
       id="filter8-6-1"
       height="1"
       width="1"
       x="0"
       y="0"><feColorMatrix
         in="SourceGraphic"
         type="matrix"
         values="0 0 0 0 1 0 0 0 0 1 0 0 0 0 1 0 0 0 1 0"
         id="feColorMatrix8-3-9" /></filter><clipPath
       id="q-10"><rect
         height="152"
         width="192"
         id="rect21-63"
         x="0"
         y="0" /></clipPath><mask
       id="o-2"><g
         filter="url(#d)"
         id="g20-0"
         style="filter:url(#d-1)"><rect
           fill-opacity="0.1"
           height="128"
           width="128"
           id="rect20-6"
           x="0"
           y="0" /></g></mask><filter
       id="d-1"
       height="1"
       width="1"
       x="0"
       y="0"><feColorMatrix
         in="SourceGraphic"
         type="matrix"
         values="0 0 0 0 1 0 0 0 0 1 0 0 0 0 1 0 0 0 1 0"
         id="feColorMatrix11-5" /></filter><clipPath
       id="h-76"><rect
         height="152"
         width="192"
         id="rect15-56"
         x="0"
         y="0" /></clipPath><mask
       id="e-93"><g
         filter="url(#d)"
         id="g11-7"
         style="filter:url(#d-1)"><rect
           fill-opacity="0.1"
           height="128"
           width="128"
           id="rect11-4"
           x="0"
           y="0" /></g></mask><filter
       id="filter1-5"
       height="1"
       width="1"
       x="0"
       y="0"><feColorMatrix
         in="SourceGraphic"
         type="matrix"
         values="0 0 0 0 1 0 0 0 0 1 0 0 0 0 1 0 0 0 1 0"
         id="feColorMatrix1-2" /></filter><clipPath
       id="k-4"><rect
         height="152"
         width="192"
         id="rect17-7"
         x="0"
         y="0" /></clipPath><mask
       id="i-4"><g
         filter="url(#d)"
         id="g16-4"
         style="filter:url(#d-1)"><rect
           fill-opacity="0.1"
           height="128"
           width="128"
           id="rect16-3"
           x="0"
           y="0" /></g></mask><filter
       id="filter4-07"
       height="1"
       width="1"
       x="0"
       y="0"><feColorMatrix
         in="SourceGraphic"
         type="matrix"
         values="0 0 0 0 1 0 0 0 0 1 0 0 0 0 1 0 0 0 1 0"
         id="feColorMatrix4-8" /></filter><clipPath
       id="n-31"><rect
         height="152"
         width="192"
         id="rect19-49"
         x="0"
         y="0" /></clipPath><mask
       id="l-2"><g
         filter="url(#d)"
         id="g18-06"
         style="filter:url(#d-1)"><rect
           fill-opacity="0.1"
           height="128"
           width="128"
           id="rect18-8"
           x="0"
           y="0" /></g></mask><filter
       id="filter8-9"
       height="1"
       width="1"
       x="0"
       y="0"><feColorMatrix
         in="SourceGraphic"
         type="matrix"
         values="0 0 0 0 1 0 0 0 0 1 0 0 0 0 1 0 0 0 1 0"
         id="feColorMatrix8-2" /></filter><linearGradient
       id="r-5"
       gradientUnits="userSpaceOnUse"
       x1="46"
       x2="46"
       y1="108"
       y2="102"
       gradientTransform="translate(-14.000005,-11.000004)"><stop
         offset="0"
         stop-color="#ed333b"
         id="stop21-0" /><stop
         offset="1"
         stop-color="#c01c28"
         id="stop22-4" /></linearGradient><clipPath
       id="h-76-5"><rect
         height="152"
         width="192"
         id="rect15-56-9"
         x="0"
         y="0" /></clipPath><mask
       id="e-93-7"><g
         filter="url(#d)"
         id="g11-7-7"
         style="filter:url(#d-1-7)"><rect
           fill-opacity="0.1"
           height="128"
           width="128"
           id="rect11-4-6"
           x="0"
           y="0" /></g></mask><filter
       id="d-1-7"
       height="1"
       width="1"
       x="0"
       y="0"><feColorMatrix
         in="SourceGraphic"
         type="matrix"
         values="0 0 0 0 1 0 0 0 0 1 0 0 0 0 1 0 0 0 1 0"
         id="feColorMatrix11-5-3" /></filter><clipPath
       id="k-4-3"><rect
         height="152"
         width="192"
         id="rect17-7-9"
         x="0"
         y="0" /></clipPath><mask
       id="i-4-4"><g
         filter="url(#d)"
         id="g16-4-8"
         style="filter:url(#d-1-7)"><rect
           fill-opacity="0.1"
           height="128"
           width="128"
           id="rect16-3-1"
           x="0"
           y="0" /></g></mask><filter
       id="filter1-2"
       height="1"
       width="1"
       x="0"
       y="0"><feColorMatrix
         in="SourceGraphic"
         type="matrix"
         values="0 0 0 0 1 0 0 0 0 1 0 0 0 0 1 0 0 0 1 0"
         id="feColorMatrix1-93" /></filter><clipPath
       id="n-31-0"><rect
         height="152"
         width="192"
         id="rect19-49-8"
         x="0"
         y="0" /></clipPath><mask
       id="l-2-8"><g
         filter="url(#d)"
         id="g18-06-5"
         style="filter:url(#d-1-7)"><rect
           fill-opacity="0.1"
           height="128"
           width="128"
           id="rect18-8-0"
           x="0"
           y="0" /></g></mask><filter
       id="filter4-96"
       height="1"
       width="1"
       x="0"
       y="0"><feColorMatrix
         in="SourceGraphic"
         type="matrix"
         values="0 0 0 0 1 0 0 0 0 1 0 0 0 0 1 0 0 0 1 0"
         id="feColorMatrix4-3" /></filter><clipPath
       id="q-10-1"><rect
         height="152"
         width="192"
         id="rect21-63-5"
         x="0"
         y="0" /></clipPath><mask
       id="o-2-9"><g
         filter="url(#d)"
         id="g20-0-8"
         style="filter:url(#d-1-7)"><rect
           fill-opacity="0.1"
           height="128"
           width="128"
           id="rect20-6-4"
           x="0"
           y="0" /></g></mask><filter
       id="filter8-8"
       height="1"
       width="1"
       x="0"
       y="0"><feColorMatrix
         in="SourceGraphic"
         type="matrix"
         values="0 0 0 0 1 0 0 0 0 1 0 0 0 0 1 0 0 0 1 0"
         id="feColorMatrix8-1" /></filter><linearGradient
       inkscape:collect="always"
       xlink:href="#r-4"
       id="linearGradient44"
       gradientUnits="userSpaceOnUse"
       x1="46"
       y1="108"
       x2="46"
       y2="102"
       gradientTransform="translate(-16,-12.000004)" /><linearGradient
       id="r-4"
       gradientUnits="userSpaceOnUse"
       x1="46"
       x2="46"
       y1="108"
       y2="102"><stop
         offset="0"
         stop-color="#ed333b"
         id="stop21-4" /><stop
         offset="1"
         stop-color="#c01c28"
         id="stop22-44" /></linearGradient><linearGradient
       inkscape:collect="always"
       xlink:href="#f"
       id="linearGradient7"
       gradientTransform="matrix(1.372549,0,0,1,-19.647058,-154)"
       x1="42"
       y1="273"
       x2="93"
       y2="273" /><linearGradient
       inkscape:collect="always"
       xlink:href="#f"
       id="linearGradient8"
       gradientTransform="matrix(1.45098,0,0,1,-26.941177,-150)"
       x1="42"
       y1="273"
       x2="93"
       y2="273" /><linearGradient
       inkscape:collect="always"
       xlink:href="#f"
       id="linearGradient9"
       gradientTransform="matrix(1.176471,0,0,1,-1.411765,-146)"
       x1="42"
       y1="273"
       x2="93"
       y2="273" /><linearGradient
       inkscape:collect="always"
       xlink:href="#f"
       id="linearGradient10"
       gradientTransform="matrix(0.745098,0,0,1,18.705883,-158)"
       x1="42"
       y1="273"
       x2="93"
       y2="273" /></defs><metadata
     id="metadata4"><rdf:RDF><cc:Work
         rdf:about=""><dc:format>image/svg+xml</dc:format><dc:type
           rdf:resource="http://purl.org/dc/dcmitype/StillImage" /><dc:creator><cc:Agent><dc:title>GNOME Design Team</dc:title></cc:Agent></dc:creator><dc:source /><cc:license
           rdf:resource="http://creativecommons.org/licenses/by-sa/4.0/" /><dc:title>Adwaita Icon Template</dc:title><dc:subject><rdf:Bag /></dc:subject><dc:date /><dc:rights><cc:Agent><dc:title /></cc:Agent></dc:rights><dc:publisher><cc:Agent><dc:title /></cc:Agent></dc:publisher><dc:identifier /><dc:relation /><dc:language /><dc:coverage /><dc:description /><dc:contributor><cc:Agent><dc:title /></cc:Agent></dc:contributor></cc:Work><cc:License
         rdf:about="http://creativecommons.org/licenses/by-sa/4.0/"><cc:permits
           rdf:resource="http://creativecommons.org/ns#Reproduction" /><cc:permits
           rdf:resource="http://creativecommons.org/ns#Distribution" /><cc:requires
           rdf:resource="http://creativecommons.org/ns#Notice" /><cc:requires
           rdf:resource="http://creativecommons.org/ns#Attribution" /><cc:permits
           rdf:resource="http://creativecommons.org/ns#DerivativeWorks" /><cc:requires
           rdf:resource="http://creativecommons.org/ns#ShareAlike" /></cc:License></rdf:RDF></metadata><g
     transform="translate(0,-172)"
     style="display:inline"
     id="layer1"><g
       style="display:none"
       id="layer3"><circle
         style="display:inline;opacity:0.1;vector-effect:none;fill:none;fill-opacity:1;stroke:#000000;stroke-width:0.99000001;stroke-linecap:butt;stroke-linejoin:miter;stroke-miterlimit:4;stroke-dasharray:0.99000001, 0.99000001;stroke-dashoffset:0;stroke-opacity:1;marker:none;marker-start:none;marker-mid:none;marker-end:none;paint-order:normal;enable-background:new"
         id="circle2892"
         r="59.504131"
         cy="236"
         cx="64.000031" /><rect
         style="display:inline;opacity:0.1;vector-effect:none;fill:none;fill-opacity:1;stroke:#000000;stroke-width:0.99000001;stroke-linecap:butt;stroke-linejoin:miter;stroke-miterlimit:4;stroke-dasharray:0.99000001, 0.99000001;stroke-dashoffset:0;stroke-opacity:1;marker:none;marker-start:none;marker-mid:none;marker-end:none;paint-order:normal;enable-background:new"
         id="rect2894"
         width="87.009987"
         height="111.01005"
         x="20.495007"
         y="180.49496"
         rx="8.701004"
         ry="7.9292889" /><rect
         style="display:inline;opacity:0.1;vector-effect:none;fill:none;fill-opacity:1;stroke:#000000;stroke-width:0.99000001;stroke-linecap:butt;stroke-linejoin:miter;stroke-miterlimit:4;stroke-dasharray:0.99000001, 0.99000001;stroke-dashoffset:0;stroke-opacity:1;marker:none;marker-start:none;marker-mid:none;marker-end:none;paint-order:normal;enable-background:new"
         id="rect2896"
         width="103.00952"
         height="103.00952"
         x="12.495266"
         y="184.49524"
         rx="7.9238095"
         ry="7.9238095" /><rect
         style="display:inline;opacity:0.1;vector-effect:none;fill:none;fill-opacity:1;stroke:#000000;stroke-width:0.99000001;stroke-linecap:butt;stroke-linejoin:miter;stroke-miterlimit:4;stroke-dasharray:0.99000001, 0.99000001;stroke-dashoffset:0;stroke-opacity:1;marker:none;marker-start:none;marker-mid:none;marker-end:none;paint-order:normal;enable-background:new"
         id="rect2898"
         width="111.01004"
         height="87.010048"
         x="8.4950066"
         y="200.49496"
         rx="7.9292889"
         ry="8.701005" /><path
         style="display:inline;fill:none;stroke:#62a0ea;stroke-width:2;stroke-linecap:butt;stroke-linejoin:miter;stroke-miterlimit:4;stroke-dasharray:none;stroke-opacity:1;enable-background:new"
         d="M 2.6203015e-5,288.99999 H 128.00003"
         id="path2900" /></g><g
       style="display:inline"
       id="layer9"><g
         transform="translate(192.50002,2.5)"
         id="g1308"
         style="display:inline;enable-background:new"><g
           id="g35"
           transform="matrix(1.0681818,0,0,1.0089286,-94.40911,163.42857)"><g
             style="display:inline;enable-background:new"
             id="g2"
             transform="matrix(0.93617023,0,0,0.99115041,-91.829785,187.39823)"><g
               transform="translate(0,-172)"
               style="display:inline"
               id="layer1-5"><g
                 style="display:none"
                 id="layer3-8"><circle
                   style="display:inline;opacity:0.1;vector-effect:none;fill:none;fill-opacity:1;stroke:#000000;stroke-width:0.99;stroke-linecap:butt;stroke-linejoin:miter;stroke-miterlimit:4;stroke-dasharray:0.99, 0.99;stroke-dashoffset:0;stroke-opacity:1;marker:none;marker-start:none;marker-mid:none;marker-end:none;paint-order:normal;enable-background:new"
                   id="circle2892-7"
                   r="59.504131"
                   cy="236"
                   cx="64.000031" /><rect
                   style="display:inline;opacity:0.1;vector-effect:none;fill:none;fill-opacity:1;stroke:#000000;stroke-width:0.99;stroke-linecap:butt;stroke-linejoin:miter;stroke-miterlimit:4;stroke-dasharray:0.99, 0.99;stroke-dashoffset:0;stroke-opacity:1;marker:none;marker-start:none;marker-mid:none;marker-end:none;paint-order:normal;enable-background:new"
                   id="rect2894-0"
                   width="87.009987"
                   height="111.01005"
                   x="20.495007"
                   y="180.49496"
                   rx="8.701004"
                   ry="7.9292889" /><rect
                   style="display:inline;opacity:0.1;vector-effect:none;fill:none;fill-opacity:1;stroke:#000000;stroke-width:0.99;stroke-linecap:butt;stroke-linejoin:miter;stroke-miterlimit:4;stroke-dasharray:0.99, 0.99;stroke-dashoffset:0;stroke-opacity:1;marker:none;marker-start:none;marker-mid:none;marker-end:none;paint-order:normal;enable-background:new"
                   id="rect2896-4"
                   width="103.00952"
                   height="103.00952"
                   x="12.495266"
                   y="184.49524"
                   rx="7.9238095"
                   ry="7.9238095" /><rect
                   style="display:inline;opacity:0.1;vector-effect:none;fill:none;fill-opacity:1;stroke:#000000;stroke-width:0.99;stroke-linecap:butt;stroke-linejoin:miter;stroke-miterlimit:4;stroke-dasharray:0.99, 0.99;stroke-dashoffset:0;stroke-opacity:1;marker:none;marker-start:none;marker-mid:none;marker-end:none;paint-order:normal;enable-background:new"
                   id="rect2898-8"
                   width="111.01004"
                   height="87.010048"
                   x="8.4950066"
                   y="200.49496"
                   rx="7.9292889"
                   ry="8.701005" /><path
                   style="display:inline;fill:none;stroke:#62a0ea;stroke-width:2;stroke-linecap:butt;stroke-linejoin:miter;stroke-miterlimit:4;stroke-dasharray:none;stroke-opacity:1;enable-background:new"
                   d="M 2.6203015e-5,288.99999 H 128.00003"
                   id="path2900-0" /></g><g
                 id="g6"><path
                   id="rect954-3-6"
                   d="M 20.500008,16.999994 V 109 h 80.811972 c 4.47699,0 8.0812,-3.568 8.0812,-8 V 25.000001 c 0,-4.432002 -3.60421,-8.000007 -8.0812,-8.000007 z"
                   style="display:inline;fill:#204a87;fill-opacity:1;stroke:none;stroke-width:6.03038;stroke-linecap:butt;stroke-linejoin:miter;stroke-miterlimit:4;stroke-dasharray:none;stroke-dashoffset:0;stroke-opacity:1;marker:none;marker-start:none;marker-mid:none;marker-end:none;paint-order:normal;enable-background:new" /><path
                   id="rect954-3-6-1-1"
                   d="M 22.520306,36.999996 V 107 h 78.791674 c 4.47699,0 8.0812,-3.568 8.0812,-8 V 45.000002 c 0,-4.432001 -3.60421,-8.000006 -8.0812,-8.000006 z"
                   style="display:inline;fill:url(#linearGradient15);fill-opacity:1;stroke:none;stroke-width:6.03038;stroke-linecap:butt;stroke-linejoin:miter;stroke-miterlimit:4;stroke-dasharray:none;stroke-dashoffset:0;stroke-opacity:1;marker:none;marker-start:none;marker-mid:none;marker-end:none;paint-order:normal;enable-background:new" /><path
                   id="rect954-3-2-0"
                   d="M 20.500008,8.3076905 V 84.999996 h 80.811972 c 4.47699,0 8.0812,-3.087686 8.0812,-6.92308 V 15.230767 c 0,-3.835382 -3.60421,-6.9230765 -8.0812,-6.9230765 z"
                   style="display:inline;fill:#204a87;fill-opacity:1;stroke:none;stroke-width:5.60983;stroke-linecap:butt;stroke-linejoin:miter;stroke-miterlimit:4;stroke-dasharray:none;stroke-dashoffset:0;stroke-opacity:1;marker:none;marker-start:none;marker-mid:none;marker-end:none;paint-order:normal;enable-background:new"
                   sodipodi:nodetypes="ccssssc" /><path
                   id="rect954-3-2-9-0-3-4"
                   d="M 20.500008,-2.9999978 V 83.269228 h 80.811972 c 4.47699,0 8.0812,-3.087696 8.0812,-6.923079 V 3.9230785 c 0,-3.83539159 -3.60421,-6.9230763 -8.0812,-6.9230763 z"
                   style="display:inline;fill:#3465a4;fill-opacity:1;stroke:none;stroke-width:5.60983;stroke-linecap:butt;stroke-linejoin:miter;stroke-miterlimit:4;stroke-dasharray:none;stroke-dashoffset:0;stroke-opacity:1;marker:none;marker-start:none;marker-mid:none;marker-end:none;paint-order:normal;enable-background:new"
                   sodipodi:nodetypes="ccssssc" /><path
                   style="display:inline;opacity:0.187;fill:#ffffff;fill-opacity:1;stroke:none;stroke-width:5.54999;stroke-linecap:butt;stroke-linejoin:miter;stroke-miterlimit:4;stroke-dasharray:none;stroke-dashoffset:0;stroke-opacity:1;marker:none;marker-start:none;marker-mid:none;marker-end:none;paint-order:normal;enable-background:new"
                   d="m 23.160623,-2.9999978 h 2.020301 V 83.269228 h -2.020301 z"
                   id="rect1366-2-2"
                   sodipodi:nodetypes="ccccc" /><path
                   style="display:inline;opacity:0.57995;fill:#204a87;fill-opacity:1;stroke:none;stroke-width:5.54999;stroke-linecap:butt;stroke-linejoin:miter;stroke-miterlimit:4;stroke-dasharray:none;stroke-dashoffset:0;stroke-opacity:1;marker:none;marker-start:none;marker-mid:none;marker-end:none;paint-order:normal;enable-background:new"
                   d="m 24.466639,-2.9999978 h 2.0203 V 83.269228 h -2.0203 z"
                   id="path15-2"
                   sodipodi:nodetypes="ccccc" /><path
                   style="font-size:51.3743px;font-family:'RIT Rachana';-inkscape-font-specification:'RIT Rachana';fill:#2e1414;fill-opacity:0.376471;stroke-width:0.342726"
                   d="m 70.209649,58.988979 v -1.822912 h -0.841791 c -1.05224,0 -1.762501,-0.156253 -2.15709,-0.468748 -0.368285,-0.312506 -0.789181,-1.09375 -1.3153,-2.343752 L 54.715427,27.035857 H 52.900314 L 42.798818,52.530645 c -0.78918,1.979175 -1.44683,3.229167 -1.972949,3.776047 -0.526119,0.57292 -1.315299,0.859375 -2.42015,0.859375 h -0.605038 v 1.822912 h 11.627244 v -1.822912 h -0.894404 c -2.367538,0 -3.551306,-0.859375 -3.551306,-2.578125 0,-0.468749 0.131529,-1.09375 0.420894,-1.901044 l 1.446829,-3.958329 h 11.600938 l 2.393844,6.015625 c 0.210449,0.625001 0.341978,1.041669 0.341978,1.223952 0,0.364586 -0.26306,0.651041 -0.762874,0.859375 -0.499813,0.208334 -1.157463,0.338546 -1.972948,0.338546 h -1.841418 v 1.822912 z M 57.530165,46.619191 h -9.812129 l 4.866606,-12.473959 z m 38.406733,9.817713 c -0.552426,0.182283 -0.868098,0.286455 -0.92071,0.286455 -0.710261,0 -1.183769,-0.260414 -1.473135,-0.807294 -0.289365,-0.520829 -0.420895,-1.406245 -0.420895,-2.656247 V 43.233772 c 0,-3.098955 -0.762874,-5.208332 -2.262314,-6.302081 -1.525748,-1.11979 -3.656533,-1.666669 -6.418661,-1.666669 -2.762128,0 -5.050748,0.59896 -6.813249,1.796881 -1.7625,1.171871 -2.656903,2.656247 -2.656903,4.453119 0,0.937506 0.236754,1.692709 0.736567,2.239589 0.473508,0.54687 1.078546,0.833335 1.841419,0.833335 0.736568,0 1.341605,-0.234374 1.788806,-0.755214 0.447203,-0.468748 0.683957,-1.015627 0.683957,-1.562497 0,-0.57292 -0.157837,-1.223962 -0.499815,-1.953124 -0.341977,-0.729173 -0.499813,-1.11979 -0.499813,-1.14583 0,-0.54688 0.447203,-1.015628 1.315298,-1.406255 0.894405,-0.390627 2.10448,-0.598961 3.603921,-0.598961 1.499441,0 2.709516,0.416668 3.603919,1.250002 0.894403,0.807294 1.341605,2.291671 1.341605,4.427088 v 2.005205 c -5.603174,0.963537 -9.549072,2.135418 -11.758774,3.515622 -2.262314,1.354164 -3.367166,3.229167 -3.367166,5.651039 0,1.744791 0.631345,3.125005 1.894032,4.166674 1.288993,1.041658 2.972574,1.562497 5.10336,1.562497 3.419777,0 6.208211,-1.223961 8.365301,-3.645834 0.39459,1.171871 0.894404,2.005205 1.552054,2.473964 0.657649,0.520829 1.525747,0.755203 2.604292,0.755203 1.078545,0 2.078172,-0.286455 2.998881,-0.833335 0.92071,-0.546869 1.367911,-1.093749 1.367911,-1.588538 0,-0.494798 -0.157835,-0.755213 -0.420895,-0.755213 -0.315672,0 -0.736568,0.104172 -1.288993,0.286465 z m -7.050003,-7.343749 c 0,1.536457 -0.05261,2.604166 -0.184142,3.177076 -0.131531,0.625001 -0.447203,1.328123 -0.947016,2.135417 -0.526119,0.807295 -1.315299,1.510417 -2.367539,2.083337 -1.025933,0.598961 -2.104477,0.885416 -3.209328,0.885416 -1.078546,0 -1.999254,-0.364587 -2.762128,-1.145831 -0.762874,-0.729172 -1.131157,-1.71875 -1.131157,-2.916671 0,-1.197911 0.289365,-2.187498 0.868096,-2.942712 1.131158,-1.484376 4.366794,-2.682287 9.733214,-3.619783 z"
                   id="path1-0"
                   aria-label="Aa" /><path
                   style="font-size:51.3743px;font-family:'RIT Rachana';-inkscape-font-specification:'RIT Rachana';fill:#f4e3d7;fill-opacity:1;stroke-width:0.342726"
                   d="m 69.260776,56.635431 v -1.822922 h -0.841792 c -1.052239,0 -1.762501,-0.156243 -2.15709,-0.468748 -0.368284,-0.312496 -0.789181,-1.09375 -1.3153,-2.343752 L 53.766553,24.682309 H 51.951441 L 41.849943,50.177097 c -0.789179,1.979165 -1.446828,3.229167 -1.972947,3.776037 -0.526121,0.57292 -1.3153,0.859375 -2.420151,0.859375 h -0.605037 v 1.822922 h 11.627243 v -1.822922 h -0.894404 c -2.367538,0 -3.551307,-0.859375 -3.551307,-2.578125 0,-0.468749 0.13153,-1.09375 0.420895,-1.901034 l 1.44683,-3.958339 h 11.600937 l 2.393844,6.015625 c 0.210448,0.625001 0.341979,1.041669 0.341979,1.223962 0,0.364576 -0.263062,0.651041 -0.762874,0.859375 -0.499814,0.208334 -1.157464,0.338536 -1.972949,0.338536 h -1.841419 v 1.822922 z M 56.581292,44.265633 h -9.81213 l 4.866605,-12.473949 z m 38.406732,9.817713 c -0.552426,0.182293 -0.868097,0.286455 -0.920709,0.286455 -0.710262,0 -1.183769,-0.260414 -1.473135,-0.807284 -0.289366,-0.520839 -0.420896,-1.406255 -0.420896,-2.656257 V 40.880224 c 0,-3.098965 -0.762873,-5.208332 -2.262314,-6.302081 -1.525748,-1.1198 -3.656532,-1.666669 -6.41866,-1.666669 -2.762129,0 -5.050748,0.59896 -6.813249,1.796871 -1.762501,1.171881 -2.656905,2.656257 -2.656905,4.453129 0,0.937496 0.236754,1.69271 0.736568,2.239579 0.473508,0.54688 1.078547,0.833335 1.84142,0.833335 0.736567,0 1.341604,-0.234374 1.788806,-0.755203 0.447202,-0.468759 0.683956,-1.015628 0.683956,-1.562508 0,-0.57291 -0.157836,-1.223951 -0.499814,-1.953124 -0.341979,-0.729163 -0.499813,-1.11979 -0.499813,-1.14583 0,-0.54688 0.447201,-1.015628 1.315298,-1.406255 0.894404,-0.390617 2.104478,-0.598951 3.60392,-0.598951 1.499441,0 2.709516,0.416668 3.603918,1.249992 0.894404,0.807294 1.341606,2.291671 1.341606,4.427088 v 2.005205 c -5.603175,0.963547 -9.549071,2.135418 -11.758773,3.515632 -2.262315,1.354164 -3.367166,3.229167 -3.367166,5.65104 0,1.74479 0.631343,3.124994 1.894031,4.166663 1.288992,1.041668 2.972575,1.562497 5.103361,1.562497 3.419777,0 6.20821,-1.223951 8.365301,-3.645834 0.394589,1.171881 0.894403,2.005215 1.552053,2.473964 0.657649,0.520829 1.525747,0.755203 2.604292,0.755203 1.078545,0 2.078172,-0.286455 2.998882,-0.833335 0.920709,-0.546869 1.367911,-1.093749 1.367911,-1.588538 0,-0.494788 -0.157836,-0.755203 -0.420896,-0.755203 -0.315672,0 -0.736567,0.104162 -1.288993,0.286455 z m -7.050003,-7.343749 c 0,1.536457 -0.05261,2.604166 -0.184142,3.177086 -0.13153,0.625001 -0.447203,1.328123 -0.947016,2.135417 -0.526119,0.807285 -1.315298,1.510417 -2.367538,2.083327 -1.025933,0.598961 -2.104479,0.885416 -3.209329,0.885416 -1.078545,0 -1.999255,-0.364577 -2.762129,-1.145831 -0.762873,-0.729162 -1.131156,-1.71875 -1.131156,-2.916671 0,-1.197911 0.289366,-2.187498 0.868097,-2.942702 1.131158,-1.484376 4.366792,-2.682297 9.733213,-3.619793 z"
                   id="path14-5"
                   aria-label="Aa" /><path
                   style="font-size:51.3743px;font-family:'RIT Rachana';-inkscape-font-specification:'RIT Rachana';display:inline;fill:#fcf9f3;fill-opacity:1;stroke-width:0.342648;enable-background:new"
                   d="m 69.260765,56.620852 v -1.822085 h -0.841782 c -1.05225,0 -1.7625,-0.156172 -2.157087,-0.468536 -0.368289,-0.312364 -0.789185,-1.093235 -1.315314,-2.342672 L 53.766552,24.682309 H 51.951426 L 41.849934,50.165464 c -0.789165,1.978267 -1.446828,3.227704 -1.972937,3.774322 -0.52612,0.572657 -1.315295,0.858981 -2.420152,0.858981 H 36.8518 v 1.822085 h 11.627254 v -1.822085 h -0.894409 c -2.367534,0 -3.551296,-0.858981 -3.551296,-2.576945 0,-0.468536 0.131522,-1.093244 0.420895,-1.900165 l 1.446808,-3.956524 h 11.600945 l 2.393844,6.012882 c 0.210457,0.624718 0.34198,1.041174 0.34198,1.223376 0,0.364425 -0.263055,0.650749 -0.762877,0.859002 -0.499801,0.208233 -1.157463,0.338374 -1.972947,0.338374 h -1.841414 v 1.822085 z M 56.58129,44.256715 h -9.812117 l 4.866601,-12.46829 z m 38.406732,9.813233 c -0.552439,0.182192 -0.868111,0.286323 -0.920718,0.286323 -0.710259,0 -1.183772,-0.260313 -1.473145,-0.806931 -0.289354,-0.520587 -0.420876,-1.405609 -0.420876,-2.655036 V 40.872829 c 0,-3.097532 -0.762887,-5.205961 -2.262321,-6.299196 -1.525752,-1.119285 -3.656541,-1.665922 -6.418663,-1.665922 -2.762121,0 -5.05074,0.598708 -6.813259,1.796054 -1.762479,1.171356 -2.656899,2.655056 -2.656899,4.4511 0,0.937073 0.236778,1.691943 0.736579,2.238581 0.473512,0.546607 1.078538,0.832931 1.841404,0.832931 0.736589,0 1.341613,-0.234263 1.788818,-0.75485 0.447204,-0.468537 0.68394,-1.015164 0.68394,-1.561791 0,-0.572658 -0.15783,-1.223407 -0.499801,-1.952247 -0.34197,-0.72882 -0.499822,-1.119255 -0.499822,-1.145295 0,-0.546618 0.447205,-1.015164 1.315306,-1.405599 0.894409,-0.390456 2.104469,-0.598699 3.603924,-0.598699 1.499444,0 2.709524,0.416476 3.603913,1.249417 0.894408,0.806941 1.341613,2.290631 1.341613,4.42506 v 2.004307 c -5.603179,0.963114 -9.549073,2.134449 -11.758777,3.514028 -2.2623,1.353548 -3.367167,3.227694 -3.367167,5.648457 0,1.744003 0.631354,3.123592 1.894031,4.164776 1.288987,1.041184 2.972581,1.561781 5.103359,1.561781 3.419784,0 6.208215,-1.223396 8.365301,-3.644169 0.394587,1.171336 0.894409,2.004287 1.552061,2.472823 0.657642,0.520597 1.525732,0.754871 2.604281,0.754871 1.078558,0 2.078181,-0.286324 2.998888,-0.832952 0.920697,-0.546617 1.367912,-1.093254 1.367912,-1.587811 0,-0.494577 -0.157841,-0.75487 -0.420906,-0.75487 -0.315662,0 -0.736558,0.104121 -1.288976,0.286334 z m -7.050007,-7.34041 c 0,1.535761 -0.05266,2.603005 -0.184149,3.175633 -0.131532,0.624708 -0.447194,1.327518 -0.947016,2.134439 -0.52612,0.806941 -1.315295,1.50973 -2.367535,2.082398 -1.025941,0.598668 -2.104479,0.885022 -3.209325,0.885022 -1.078549,0 -1.999246,-0.364435 -2.762133,-1.145325 -0.762866,-0.72884 -1.131144,-1.717974 -1.131144,-2.91534 0,-1.197386 0.289352,-2.186499 0.868099,-2.94138 1.131135,-1.48368 4.366781,-2.681056 9.733203,-3.618139 z"
                   id="path10"
                   aria-label="Aa" /><path
                   d="M 20.500013,15.829243 H 109.39318 V 68.170752 H 20.500013 Z"
                   fill="#62a0ea"
                   id="path41"
                   style="display:inline;opacity:0.1399;fill:#ececec;fill-opacity:1;stroke-width:1.06257;enable-background:new"
                   sodipodi:nodetypes="ccccc" /><g
                   id="g7-6"
                   transform="matrix(1.0349502,0,0,1,-0.71648003,-1.0000035)"
                   style="display:inline;opacity:0.6;enable-background:new"><g
                     clip-path="url(#h-76-5)"
                     mask="url(#e-93-7)"
                     transform="translate(-8,-24.00001)"
                     id="g29-4"><path
                       d="m 38,118 h 70 v 2 H 38 Z m 0,0"
                       fill="url(#g)"
                       id="path29-9"
                       style="fill:url(#linearGradient7)" /></g><g
                     clip-path="url(#k-4-3)"
                     mask="url(#i-4-4)"
                     transform="translate(-8,-24.00001)"
                     id="g32-0"><path
                       d="m 34,122 h 74 v 2 H 34 Z m 0,0"
                       fill="url(#j)"
                       id="path32-9"
                       style="fill:url(#linearGradient8)" /></g><g
                     clip-path="url(#n-31-0)"
                     mask="url(#l-2-8)"
                     transform="translate(-8,-24.00001)"
                     id="g33-1"><path
                       d="m 48,126 h 60 v 2 H 48 Z m 0,0"
                       fill="url(#m)"
                       id="path33-7"
                       style="fill:url(#linearGradient9)" /></g><g
                     clip-path="url(#q-10-1)"
                     mask="url(#o-2-9)"
                     transform="translate(-8,-24.00001)"
                     id="g34-7"><path
                       d="m 50,114 h 38 v 2 H 50 Z m 0,0"
                       fill="url(#p)"
                       id="path34-1"
                       style="fill:url(#linearGradient10)" /></g></g><path
                   d="m 27.999995,89.999996 h 12 V 103 l -6,-5.000004 -6,5.000004 z m 0,0"
                   fill="url(#r)"
                   id="path43"
                   style="fill:url(#linearGradient44);stroke-width:1" /></g></g></g></g></g></g></g></svg>
